<?xml version="1.0" encoding="UTF-8" standalone="no"?>
<svg
   xmlns:dc="http://purl.org/dc/elements/1.1/"
   xmlns:cc="http://creativecommons.org/ns#"
   xmlns:rdf="http://www.w3.org/1999/02/22-rdf-syntax-ns#"
   xmlns:svg="http://www.w3.org/2000/svg"
   xmlns="http://www.w3.org/2000/svg"
   xmlns:sodipodi="http://sodipodi.sourceforge.net/DTD/sodipodi-0.dtd"
   xmlns:inkscape="http://www.inkscape.org/namespaces/inkscape"
   width="544.04926"
   height="450.07935"
   viewBox="0 0 435.23941 360.06348"
   version="1.1"
   id="svg2958"
   inkscape:version="0.48.3.1 r9886"
   sodipodi:docname="illustration_accueil.svg">
  <metadata
     id="metadata3096">
    <rdf:RDF>
      <cc:Work
         rdf:about="">
        <dc:format>image/svg+xml</dc:format>
        <dc:type
           rdf:resource="http://purl.org/dc/dcmitype/StillImage" />
        <dc:title />
      </cc:Work>
    </rdf:RDF>
  </metadata>
  <defs
     id="defs3094" />
  <sodipodi:namedview
     pagecolor="#ffffff"
     bordercolor="#666666"
     borderopacity="1"
     objecttolerance="10"
     gridtolerance="10"
     guidetolerance="10"
     inkscape:pageopacity="0"
     inkscape:pageshadow="2"
     inkscape:window-width="1366"
     inkscape:window-height="715"
     id="namedview3092"
     showgrid="false"
     inkscape:zoom="0.70710678"
     inkscape:cx="652.13881"
     inkscape:cy="325.43083"
     inkscape:window-x="0"
     inkscape:window-y="24"
     inkscape:window-maximized="1"
     inkscape:current-layer="svg2958"
     inkscape:snap-global="false"
     fit-margin-top="2"
     fit-margin-left="2"
     fit-margin-right="2"
     fit-margin-bottom="2"
     width="670.16px" />
  <text
     xml:space="preserve"
     style="font-size:25.78735924px;font-style:normal;font-weight:normal;line-height:125%;letter-spacing:0px;word-spacing:0px;fill:#000000;fill-opacity:1;stroke:none;font-family:Sans"
     x="90.473976"
     y="55.794289"
     id="text3475"
     sodipodi:linespacing="125%"><tspan
       sodipodi:role="line"
       x="95.329254"
       y="55.794289"
       id="tspan3477"
       style="font-style:normal;font-variant:normal;font-weight:normal;font-stretch:normal;font-family:Domestic Manners;-inkscape-font-specification:Domestic Manners"><tspan
         x="90.473976"
         y="55.794289"
         style="font-size:20.62988663px;font-style:normal;font-variant:normal;font-weight:normal;font-stretch:normal;text-align:center;text-anchor:middle;fill:#008080;font-family:Domestic Manners;-inkscape-font-specification:Domestic Manners"
         id="tspan3479">Nouveau </tspan></tspan><tspan
       sodipodi:role="line"
       x="103.08561"
       y="81.581657"
       id="tspan3481"
       style="font-style:normal;font-variant:normal;font-weight:normal;font-stretch:normal;font-family:Domestic Manners;-inkscape-font-specification:Domestic Manners"><tspan
         x="103.08561"
         y="81.581657"
         style="font-size:20.62988663px;font-style:normal;font-variant:normal;font-weight:normal;font-stretch:normal;text-align:center;text-anchor:middle;fill:#008080;font-family:Domestic Manners;-inkscape-font-specification:Domestic Manners"
         id="tspan3483">ici ?</tspan></tspan><tspan
       sodipodi:role="line"
       x="88.217583"
       y="107.36901"
       id="tspan3487"
       style="font-style:normal;font-variant:normal;font-weight:normal;font-stretch:normal;font-family:Domestic Manners;-inkscape-font-specification:Domestic Manners"><tspan
         x="83.362305"
         y="107.36901"
         style="font-size:20.62988663px;font-style:normal;font-variant:normal;font-weight:normal;font-stretch:normal;text-align:center;text-anchor:middle;fill:#008080;font-family:Domestic Manners;-inkscape-font-specification:Domestic Manners"
         id="tspan3489">Inscrivez </tspan></tspan><tspan
       sodipodi:role="line"
       x="100.386"
       y="133.15639"
       id="tspan3491"
       style="font-style:normal;font-variant:normal;font-weight:normal;font-stretch:normal;font-family:Domestic Manners;-inkscape-font-specification:Domestic Manners"><tspan
         x="100.386"
         y="133.15639"
         style="font-size:20.62988663px;font-style:normal;font-variant:normal;font-weight:normal;font-stretch:normal;text-align:center;text-anchor:middle;fill:#008080;font-family:Domestic Manners;-inkscape-font-specification:Domestic Manners"
         id="tspan3493">vous !</tspan></tspan></text>
  <g
     id="#000000ff"
     transform="matrix(-0.40802743,0,0,0.40802743,229.42429,178.10818)">
    <path
       d="M 48.99,6.99 C 52.41,1.31 60.46,3.24 65.96,3.03 77.19,5.65 85.7,14.51 93,22.91 c 5.62,8.98 10.1,18.93 11.62,29.49 1.82,9.79 1.4,19.98 4.49,29.52 1.21,3.54 6.36,2.16 8.89,3.11 15.26,1.07 30.58,2.52 45.89,1.41 16.27,-0.61 32.37,3.44 48.67,1.64 -2.91,-16.85 -2.44,-34.99 4.85,-50.73 2.57,-4.53 5.93,-9.57 11.42,-10.55 7.74,-1.41 15.65,-3.09 23.56,-2.01 9.8,3.81 20.43,8.83 24.38,19.38 8.89,16.34 8.55,35.53 5.95,53.44 -1.74,19.88 -3.7,39.81 -7.7,59.39 -2.34,12.14 -3,24.64 -6.74,36.48 -6.09,19.64 -9.75,39.97 -16.59,59.39 -10.7,26.58 -23.81,52.24 -39.82,76.04 -5.38,8.2 -12.47,15.08 -17.91,23.23 8.12,1.37 18.38,0.63 23.79,8.09 5.92,9.41 7.24,20.73 10.89,31.07 3.37,9.76 4.94,20.05 8.26,29.82 1.06,4.55 6.63,3.35 10.2,4.25 1.09,-10.82 1.04,-22.09 -3.25,-32.29 -4.45,-12.16 -8.79,-24.35 -13.6,-36.37 -0.71,-1.75 -1.07,-3.63 -1.11,-5.51 5.35,-3.53 12.31,-1.59 18.32,-2.75 14.32,-2.44 28.89,-2.28 43.23,-4.61 30.4,-2.96 61.21,-2.22 91.15,-8.99 -0.38,-16.29 -1.97,-33.86 6.37,-48.61 3.16,-5.31 7.48,-10.02 12.61,-13.47 4.58,-2.61 7.12,4.3 8.68,7.69 -3.21,-0.28 -6.4,-0.73 -9.58,-1.2 -4.76,4.69 -8.98,10.18 -11.04,16.62 -2.27,9.52 -2.78,19.37 -2.77,29.12 -1.26,4.52 1.85,7.91 3.51,11.64 0.5,3.55 -1.04,7.66 2.33,10.4 6.76,11.14 20.58,10.94 31.89,11.2 6.59,0.35 14.16,-0.96 19.93,3 3.21,3.96 3.05,9.57 4.43,14.25 2.04,7.66 3.51,15.45 4.73,23.29 4.7,-0.64 10.51,0.23 13.56,-4.21 -2.37,-1.69 -4.97,-3.05 -7.23,-4.9 -2.93,-0.65 -4.96,-2.92 -5.45,-6.06 2.56,1.05 5.13,2.16 7.7,3.23 -0.17,-11 -0.03,-22.4 -4.31,-32.75 3.95,-4.91 8.88,-8.85 13.5,-13.08 11.67,-12.19 16.06,-29.4 16.7,-45.84 1.52,-23.84 0.85,-49.98 -12.3,-70.85 -2.49,-3.58 1.8,-6.91 3.45,-9.68 4.98,-5.38 5.34,-12.96 7.56,-19.6 9.68,-29.05 15.27,-59.23 24.38,-88.44 5.79,-15.47 5.92,-32.32 11.57,-47.85 -10.31,15.44 -13.6,34.33 -23.08,50.22 -5.81,9.92 -10.22,20.55 -15.28,30.85 -5.4,10.13 -7.47,21.58 -11.59,32.23 -4.25,14.88 -5.66,30.4 -8.73,45.52 -0.14,2.34 -2.94,1.54 -4.53,1.36 -30.44,-9.72 -62.81,-5.99 -94.17,-5.51 -18.28,-0.15 -36.46,2.05 -54.64,3.62 0.64,0.87 1.28,1.75 1.93,2.63 -12.93,-3.29 -25.81,2.1 -38.62,3.59 -0.18,0.59 -0.55,1.79 -0.73,2.38 2.16,-0.76 4.35,-1.44 6.56,-2.07 -1.71,6.97 -10.74,6.63 -16.22,5.09 -2.47,-0.2 -2.24,-2.54 -1.73,-4.38 2.2,-2.77 5.51,-4.81 8.97,-5.61 31.52,-3.7 62.92,-9.89 94.79,-9.65 30.8,-0.56 62.23,-4.31 92.4,4 0.14,-2.61 0.26,-5.25 1.04,-7.76 4.05,-12.53 5.26,-25.79 9.64,-38.24 2.8,-7.65 4.02,-15.87 7.76,-23.17 7.51,-14.05 13.22,-28.98 21.37,-42.7 6.03,-12.04 9.63,-25.17 15.85,-37.14 4.05,-8.14 10.54,-15.1 12.67,-24.14 0.79,-4.09 3.02,-7.61 5.88,-10.52 1.16,0.98 2.34,1.95 3.52,2.93 -7.84,18.58 -12.24,38.34 -15.56,58.17 -0.66,8.6 -6.43,15.82 -6.71,24.45 -0.51,-0.61 -1.01,-1.23 -1.5,-1.84 0.84,4.68 -1.05,8.96 -2.49,13.28 -5.33,24.9 -11.42,49.79 -20.04,73.8 -0.82,3.98 -0.99,8.17 -2.88,11.85 -1.32,3.15 -3.86,6.02 -3.63,9.62 0.15,8.9 5.75,16.49 6.93,25.21 5.23,28.12 6.53,58.8 -6.27,85.19 -3.94,9.7 -14.35,14.35 -19.21,23.32 0.57,14.32 6.94,27.95 5.97,42.37 -3.18,7.46 -13.86,8.28 -20.45,5.05 -3.48,-7.09 -2.69,-15.64 -4.69,-23.2 -5.37,1.14 -10.81,2.89 -16.34,2.34 -3.42,-5.23 -3.61,-12.48 -8.07,-17.01 -10.43,-1.81 -21.3,-0.89 -31.82,-2.36 -9.93,-2.45 -17.05,-10.71 -21.65,-19.43 -43.25,4.39 -86.83,5.42 -129.93,11.46 3.11,12.44 7.32,24.6 12.2,36.45 3.53,8.56 8.2,16.85 9.36,26.17 -0.23,4.55 -2.21,9.51 -6.38,11.81 -5.96,4.14 -14.98,3.12 -20.14,-1.78 -3.77,-10.02 -4.72,-21 -9.32,-30.79 -4.68,-10.66 -5.9,-22.5 -10.86,-33.04 -2.7,-5.3 -9.68,-3.35 -14.28,-1.98 -5.07,1.99 -10.7,2.06 -15.66,4.35 -5.08,2.47 -5.41,8.82 -7.09,13.6 -1.74,4.85 -2.44,9.94 -3.08,15.04 -4.09,14.98 1.88,30.27 3.88,45.08 -5.13,1.25 -11.74,4.9 -16.2,0.3 -11.48,-10.96 -11.12,-27.68 -14.27,-42.08 -7.93,4.01 -15.39,8.85 -23.18,13.09 -5.19,2.07 -11.36,5.2 -16.9,2.46 -4.81,-2.3 -9.78,-4.67 -13.57,-8.5 -15.86,-19.6 -32.84,-38.99 -42.37,-62.68 -12.18,-27.94 -24.58,-56.31 -29.11,-86.7 -2.2,-15.39 -4.91,-30.76 -5.36,-46.34 -0.95,-28.68 4.61,-57 6.95,-85.48 2.36,-27.31 8.77,-54 15.54,-80.49 2.95,-12.32 5.74,-24.92 12.05,-36.05 m 3.54,2.72 c 1.55,0.45 3.11,0.9 4.66,1.37 -2.02,1.44 -4.16,2.79 -6.68,3.09 -4.95,12.66 -8.64,25.84 -10.92,39.25 -2.14,8.68 -4.33,17.34 -6.04,26.11 -5.46,20.53 -6.95,41.8 -9.28,62.83 -2.45,18.83 -3.62,37.79 -5.15,56.71 -1.58,7.81 3.8,14.88 2.29,22.54 -1.26,6.51 1.47,12.83 1.9,19.28 1.6,24.71 9.45,48.49 18.37,71.42 2.79,7.08 5.23,14.37 9.18,20.92 3.58,5.24 4.37,11.8 7.53,17.27 6.67,11.38 13.14,23.03 22.51,32.49 1.86,-4.51 4.07,-8.97 7.57,-12.46 14.83,-9.96 34.12,-11.29 50.91,-5.96 5.47,2.61 8.58,8.27 13.2,11.97 2.92,0.65 6.07,1.75 9.05,1.02 8.8,-8.18 16.33,-17.65 24.72,-26.26 22.95,-23.85 39.1,-53.15 52.91,-82.98 3.75,-9.14 9.62,-17.5 11.06,-27.46 -2.38,1.87 -4.73,3.77 -7.07,5.67 1.43,1.07 2.83,2.21 3.98,3.6 -3.72,5.32 -11.38,3.37 -16.72,3.15 -9.94,-1.56 -19.9,-3.78 -29.2,-7.67 -17.21,-9.96 -35.1,-20.97 -45.65,-38.38 -2.64,-5.01 -7.08,-10.18 -6.06,-16.29 0.37,-11.73 8.12,-21.44 15.55,-29.8 7.81,-9.07 19.15,-13.74 30.5,-16.48 12.68,-2.3 25.64,-4.23 38.53,-2.6 12.95,0.87 24.56,7.12 36.68,11.11 3.09,-13.62 4.01,-27.58 5.68,-41.42 1.29,-13.87 3.56,-27.73 2.35,-41.72 -0.38,-10.88 -5.16,-21.08 -10.93,-30.08 -7.89,-5.58 -17.39,-12.18 -27.62,-9.73 -5.8,1.4 -13.61,1.08 -17.08,7 -7.29,13.67 -9.15,30.04 -5.36,45.05 1.05,3.81 2.21,7.61 2.69,11.54 -16.41,-0.49 -32.84,0.49 -49.2,-1.31 -19.84,0.85 -39.7,0.12 -59.36,-2.69 -3.4,-0.05 -6.55,-2.19 -7.33,-5.5 C 101.16,71.78 101.78,58.5 97.98,46.01 94.87,31.07 84.08,18.34 70.88,11.09 65.26,8.01 58.59,8.61 52.53,9.71 M 213.1,72.43 c -0.03,2.87 0.36,5.75 1.77,8.29 -0.28,-2.82 -0.83,-5.61 -1.77,-8.29 m -8.21,76.8 c 0.79,1.31 1.58,2.62 2.37,3.93 4.28,-1.45 8.51,-3.13 12.39,-5.47 -4.92,0.47 -9.83,1.1 -14.76,1.54 m 20.34,-0.77 c -0.4,1.24 -0.8,2.48 -1.17,3.73 2.75,-1.29 5.48,-2.65 8.25,-3.91 -2.52,-0.05 -4.68,0.15 -7.08,0.18 m -38.74,5.51 c 3.02,0.44 6.02,1.51 9.09,1.29 2.97,-1.6 5.84,-3.42 8.7,-5.22 -6.16,-0.09 -12.22,1.37 -17.79,3.93 m 54.78,-4.63 c 0.39,2.89 0.81,5.76 1.24,8.65 4.59,0.29 8.91,-0.62 11.16,-4.95 -3.98,-1.69 -8.16,-2.89 -12.4,-3.7 m 14.75,4.54 c 0,0.81 0,2.43 0,3.24 1.3,-0.41 2.59,-0.83 3.89,-1.24 l 0,-0.76 c -1.3,-0.42 -2.59,-0.83 -3.89,-1.24 m -87.35,11.29 c 5.56,-1.87 10.51,-5.34 13.77,-10.27 -5.1,2.66 -9.97,5.91 -13.77,10.27 m 96.04,-7.41 c 0.96,2.6 2.51,4.91 4.3,7.01 1.94,-4.58 -1.72,-5.61 -4.3,-7.01 m -49.17,5.76 c 2.97,-0.66 5.91,-1.44 8.85,-2.24 -2.96,0.68 -5.92,1.43 -8.85,2.24 m 15.32,-0.41 c 0.36,0.99 0.72,1.97 1.09,2.96 0.91,0.23 1.83,0.47 2.75,0.71 0.01,-1.51 0.01,-3.02 0.01,-4.52 -1.29,0.27 -2.57,0.56 -3.85,0.85 m 15.8,13.07 c 3.51,-4.17 8.3,-8.03 8.51,-13.91 -3.53,4.16 -6.78,8.69 -8.51,13.91 M 194.65,170 c 4.33,-0.44 8.66,-0.93 12.96,-1.59 -4.43,-2.36 -9.13,-1.45 -12.96,1.59 m 66.63,8.79 c 2.74,-3.56 3.58,-8.05 3.36,-12.45 -2.71,3.54 -3.54,8.05 -3.36,12.45 m -38.11,-8.54 c -1.63,0.36 -0.92,2.99 0.66,2.5 1.63,-0.37 0.92,-3 -0.66,-2.5 m -17.71,2.56 c 3.56,3.05 7.47,5.64 11.39,8.22 -0.3,-6.08 -5.42,-9.81 -11.39,-8.22 m 22.63,8.54 c 0.6,-2.95 1.19,-5.88 1.6,-8.86 -0.73,2.93 -1.21,5.87 -1.6,8.86 m -5.82,-6.81 c -1.14,0.87 0.32,2.84 1.46,1.92 1.14,-0.88 -0.32,-2.84 -1.46,-1.92 m 21.74,19.68 c 4.32,-6.52 9.19,-13.07 10.75,-20.91 -5.29,5.96 -8.99,13.16 -10.75,20.91 m -70.77,-10.21 c 1.35,-0.3 2.69,-0.6 4.04,-0.89 0.01,-1.74 0.02,-5.23 0.03,-6.97 -1.56,2.51 -2.9,5.15 -4.07,7.86 m 14.42,-0.61 c 2.13,-2.09 3.91,-4.48 5.41,-7.05 -2.52,1.72 -4.33,4.21 -5.41,7.05 m 33.64,-7.02 c 0.69,3.35 1.75,6.58 2.81,9.83 -0.56,-3.39 -1.14,-6.79 -2.81,-9.83 m -28.39,12.65 c 1.91,2.81 3.57,5.81 5.8,8.39 2.16,2.07 5.45,0.98 7.94,0.25 4.25,-1.42 5.67,-6.18 8.01,-9.52 -3.09,-3.15 -5.71,-7.07 -9.78,-9.04 -5.26,1.26 -9.01,5.66 -11.97,9.92 m -5.31,9.18 c 1.05,-0.47 2.1,-0.93 3.15,-1.39 -1.76,-4.24 -3.07,-8.66 -4.04,-13.15 -0.74,4.86 0.17,9.73 0.89,14.54 m 68.61,0.38 c 1.12,0.91 2.4,1.59 3.62,2.37 -2.7,7.42 -5.91,14.74 -6.8,22.67 1.98,-2.5 3.58,-5.32 4.27,-8.46 2.38,-10.17 5.54,-20.13 7.95,-30.29 -2.91,4.52 -8.03,8.16 -9.04,13.71 m -19.34,3 c 2.13,-2.99 3.55,-6.42 4.32,-10.01 -2.42,2.83 -4.05,6.26 -4.32,10.01 m -80.26,-3.57 c 1,2.15 2,4.31 3.09,6.42 0.1,-1.73 0.19,-3.45 0.26,-5.17 -1.12,-0.43 -2.24,-0.84 -3.35,-1.25 m 66.67,1.79 c -1.34,0.45 -2.37,2.46 -1.53,3.71 1.76,0.68 3.36,-3.09 1.53,-3.71 m -29.02,1.13 c -0.92,1.54 1.5,3.6 2.94,2.67 0.65,-1.45 -1.59,-3.36 -2.94,-2.67 m 22.82,1.56 c -1.29,-0.07 -2.56,1.68 -1.66,2.78 1.53,1.09 3.63,-2.16 1.66,-2.78 m 19.23,23.14 c 6.36,-6.26 10.3,-14.62 12.86,-23.07 -5.69,6.82 -9.49,14.92 -12.86,23.07 m -52.03,-17.27 c -1,2.75 2.29,4.04 3.82,5.64 0.81,-3.39 1.15,-6.87 1.54,-10.32 -1.96,1.3 -4.19,2.53 -5.36,4.68 m -24.56,-3.99 c 2.39,3.06 5.07,5.87 7.66,8.76 -0.97,-4.02 -3.1,-8.14 -7.66,-8.76 m 69.63,10.37 c 2.01,-2.69 3.17,-5.87 3.76,-9.16 -1.61,2.89 -2.85,5.97 -3.76,9.16 m -36.13,-6.34 c -1.1,0.44 -1.84,2.69 -0.31,3.02 1.82,0.17 2.59,-3.74 0.31,-3.02 m -19.25,1 c 0.53,1.71 1.06,3.42 1.54,5.15 0.49,-1.71 1.07,-3.38 1.72,-5.03 -0.81,-0.03 -2.44,-0.09 -3.26,-0.12 m 47.36,1.91 c -1.07,1.31 1.2,2.88 2.15,1.56 1.03,-1.31 -1.22,-2.88 -2.15,-1.56 m -14.2,1.63 c -0.21,0.28 -0.61,0.85 -0.82,1.13 0.85,3.14 4.17,-1.66 0.82,-1.13 m -28.36,3.74 c 1.36,1.29 2.69,2.6 3.98,3.95 -0.43,-1.4 -0.85,-2.8 -1.27,-4.19 -0.68,0.06 -2.03,0.18 -2.71,0.24 m 43.31,0.62 c -1.42,-0.08 -1.69,2.37 -0.16,2.38 1.41,0.07 1.68,-2.38 0.16,-2.38 m 26.09,0.25 c -1.41,-0.04 -2.49,1.98 -1.49,3.05 1.8,1.24 3.67,-2.52 1.49,-3.05 m -47.37,8.61 c -0.45,1.42 1.94,1.93 2.4,0.66 0.45,-1.42 -1.95,-1.93 -2.4,-0.66 m -9.55,4.52 c 2.84,4.03 7.56,5.82 12.4,6 -0.04,-1.12 -0.06,-2.22 -0.07,-3.33 -4.16,-0.67 -8.3,-1.44 -12.33,-2.67 m 41.99,1.11 c -1.37,0.25 -1.63,2.9 0,2.88 1.47,-0.15 1.63,-2.93 0,-2.88 m -7.11,0.57 c -1.2,0.82 0.16,2.94 1.32,1.85 1.2,-0.84 -0.13,-2.9 -1.32,-1.85 m 13.87,5.28 c 1.31,-1.87 2.54,-3.81 3.32,-5.96 -1.29,1.88 -2.34,3.9 -3.32,5.96 m 5.1,1.73 c -1.42,-0.34 -2.55,2.16 -0.88,2.56 1.46,0.39 2.56,-2.16 0.88,-2.56 m -9.07,1.64 0.32,5.75 c 2.22,-1.66 4.37,-3.43 6.39,-5.32 -1.68,-0.11 -5.03,-0.32 -6.71,-0.43 m 137.47,99.75 c 1.56,10.36 11.49,14.97 20.38,17.63 -3.85,-5 -7.21,-10.36 -9.7,-16.16 -3.56,-0.55 -7.11,-1.05 -10.68,-1.47 m 52.38,22.9 c 1.97,4.4 4.16,8.72 5.76,13.29 3.11,-0.43 6.26,-0.87 9.38,-1.35 -1.1,-3.33 -2.11,-6.75 -3.93,-9.77 -2.37,-3.59 -7.97,-0.67 -11.21,-2.17 m -294.49,5.31 c 0.76,2.65 2.83,5.58 1.07,8.3 -1.83,4.92 -7.15,6.46 -11.15,9.09 1.55,-0.46 3.09,-0.94 4.63,-1.4 -3.31,4.58 -6.5,9.27 -9.18,14.26 7.46,-7.46 13.34,-16.35 21.07,-23.58 1.37,1.15 2.73,2.31 4.07,3.51 0.91,-1.41 1.78,-2.84 2.67,-4.26 -4.28,-2.24 -8.57,-4.46 -13.18,-5.92 m 36.5,10.89 c -5.91,4.01 -11.81,8.25 -16.23,13.93 1.24,0.43 2.5,0.83 3.77,1.2 -1.69,1.53 -3.63,2.8 -5.12,4.54 0.37,12.28 3.41,24.76 10.68,34.87 1,-1.78 1.96,-3.59 2.91,-5.41 -1.51,-3.11 -3.45,-6.37 -2.93,-9.97 1.54,-13.17 2.58,-26.55 6.92,-39.16 m -43.99,23.45 c 7.63,-3.49 13.44,-9.58 16.33,-17.5 -6.17,5.1 -11.6,11.03 -16.33,17.5 m -17.12,2.19 c 3.85,-3.7 6.98,-8.13 9.46,-12.85 -4.24,3.35 -7.24,7.98 -9.46,12.85 m -8.59,-6.01 c -1.38,0.05 -1.5,2.48 0.01,2.4 1.43,-0.01 1.5,-2.51 -0.01,-2.4 m 156.45,22.28 c 1.03,-2.62 1.66,-5.47 2.31,-8.17 -0.9,2.68 -1.71,5.4 -2.31,8.17 m -3.47,-3.5 c -1.49,0.47 -1.02,3.21 0.66,2.44 1.48,-0.48 1.01,-3.22 -0.66,-2.44 m -88.43,17.55 c 2.1,0.46 4.21,0.9 6.33,1.33 -0.32,-1.29 -0.65,-2.57 -0.98,-3.85 -1.81,0.79 -3.6,1.62 -5.35,2.52 z"
       id="path3086"
       inkscape:connector-curvature="0"
       style="fill:#000000" />
    <path
       d="m 62.17,125.17 c 1.63,-0.52 2.18,0.03 1.66,1.66 -1.63,0.52 -2.18,-0.03 -1.66,-1.66 z"
       id="path3088"
       inkscape:connector-curvature="0"
       style="fill:#000000" />
    <path
       d="m 67.69,171.68 c 4.13,-5.23 11.45,-6.78 17.75,-5.88 5.35,3.94 9.89,9.61 10.15,16.56 -0.06,-1.58 -0.12,-3.15 -0.17,-4.73 0.85,1.37 1.67,2.77 2.47,4.17 -1.78,4.02 -2.15,9.51 -6.7,11.47 -8.21,3.16 -19.57,5.5 -25.82,-2.6 -3.8,-5.79 -2.37,-14.09 2.32,-18.99 m 4.95,6.31 c -0.69,3.02 -1.01,6.1 -1.01,9.2 5.16,1.66 10.77,-0.18 12.84,-5.44 -0.94,-5.22 -8.71,-1.87 -11.83,-3.76 m 15.93,10.42 0.79,-0.47 c 2.4,-0.85 3.37,-3.21 4.12,-5.43 -1.91,1.72 -3.58,3.69 -4.91,5.9 m -1.17,0.99 c 0.86,1.12 2.83,-0.3 1.96,-1.46 -0.88,-1.12 -2.87,0.3 -1.96,1.46 z"
       id="path3090"
       inkscape:connector-curvature="0"
       style="fill:#000000" />
  </g>
  <path
     style="fill:#999999"
     id="path3089"
     d="m 149.50168,194.06317 c -0.51025,-0.0476 -0.96525,-0.30526 -1.38276,-0.58463 -0.57165,-0.46014 -1.00079,-1.08879 -1.16565,-1.81179 -0.0375,-0.16414 -0.0443,-0.33379 -0.0665,-0.50068 0.0259,-0.18162 0.0294,-0.36793 0.0779,-0.54487 0.29327,-1.06936 1.24779,-2.05118 2.04713,-2.76624 0.29717,-0.26584 0.61663,-0.50568 0.92494,-0.7585 1.50391,-1.03548 3.11203,-1.96029 4.86118,-2.51209 0.96749,-0.30522 1.13873,-0.29868 2.13041,-0.46482 1.81979,-0.18063 3.58849,0.26569 5.28338,0.89094 0.34599,0.12764 0.68571,0.2717 1.02857,0.40756 1.09345,0.49112 2.22909,0.99334 3.12289,1.8164 0.45889,0.42258 0.50494,0.55765 0.83696,1.06325 0.0846,0.18746 0.18389,0.36896 0.2538,0.56239 0.31942,0.88367 0.35623,1.85956 0.28478,2.7865 -0.0202,0.2623 -0.0585,0.52291 -0.0877,0.78436 -0.21989,1.31391 -0.52691,2.62166 -0.97635,3.87777 -0.0814,0.22761 -0.17844,0.44934 -0.26765,0.67401 -0.34611,0.78231 -0.7649,1.53666 -1.40487,2.11832 -0.38304,0.34815 -0.5037,0.39221 -0.93989,0.65464 -0.39645,0.20293 -0.78344,0.4255 -1.18934,0.60878 -0.16415,0.0741 -0.34178,0.11439 -0.51572,0.16112 -0.69169,0.18585 -1.40141,0.24029 -2.11306,0.28383 -1.0632,0.0673 -2.12498,0.0133 -3.18363,-0.0864 -0.96476,-0.067 -1.88909,-0.347 -2.796,-0.66515 -0.89871,-0.30302 -1.76343,-0.69507 -2.64113,-1.052 -0.94277,-0.39354 -1.8875,-0.78354 -2.82839,-1.1819 -0.15831,-0.0657 -0.31677,-0.13098 -0.47491,-0.19704 -0.38537,-0.16096 -0.50211,-0.20088 -0.86343,-0.3943 -0.33429,-0.17896 -0.63833,-0.39136 -0.94107,-0.61791 -0.4674,-0.35995 -0.7994,-0.83667 -1.0553,-1.36136 -0.18024,-0.44036 -0.25047,-0.9148 -0.25438,-1.38818 0.0121,-0.35462 0.15625,-0.67249 0.32098,-0.9792 0.0243,-0.0368 0.0484,-0.0736 0.0726,-0.11036 0,0 0.78558,-0.34111 0.78558,-0.34111 l 0,0 c -0.026,0.0342 -0.052,0.0684 -0.0781,0.10261 -0.16886,0.2937 -0.32115,0.59904 -0.34483,0.9433 -0.01,0.46216 0.0584,0.92665 0.22913,1.35806 0.24613,0.51492 0.57275,0.97764 1.02706,1.3319 0.2964,0.22417 0.59412,0.43501 0.92184,0.61249 0.35647,0.19306 0.47243,0.2327 0.85411,0.39383 0.15761,0.0666 0.3155,0.13241 0.47325,0.19862 0.94235,0.39836 1.88937,0.78646 2.8353,1.17603 0.8753,0.35833 1.73815,0.75076 2.63653,1.04983 0.90348,0.30981 1.82233,0.58736 2.78139,0.65158 1.05544,0.10009 2.1145,0.14578 3.17417,0.0774 0.53194,-0.0355 1.06119,-0.0731 1.5853,-0.17742 0.17316,-0.0345 0.34549,-0.0741 0.51543,-0.12196 0.1724,-0.0485 0.33175,-0.17501 0.51068,-0.16711 0.0887,0.004 -0.13018,0.1207 -0.19526,0.18105 0.44406,-0.25562 0.55977,-0.2936 0.95122,-0.63664 0.6506,-0.57015 1.07977,-1.31569 1.43169,-2.09586 0.0916,-0.22376 0.19147,-0.44427 0.27465,-0.67127 0.45788,-1.24949 0.76271,-2.55484 0.98508,-3.86452 0.0292,-0.25941 0.0674,-0.51797 0.0877,-0.77825 0.0877,-1.12851 -0.0148,-2.27565 -0.52772,-3.29935 -0.32079,-0.49851 -0.36464,-0.63146 -0.81112,-1.04952 -0.87784,-0.82199 -1.99615,-1.32974 -3.07709,-1.81908 -0.3421,-0.1349 -0.68091,-0.27845 -1.02629,-0.40471 -1.68971,-0.61775 -3.45423,-1.04961 -5.26493,-0.85893 -0.35288,0.0608 -0.70912,0.10462 -1.05863,0.18247 -0.70161,0.15626 -1.45456,0.4015 -2.1174,0.67696 -0.36033,0.14973 -0.70937,0.32538 -1.0616,0.49329 -0.15185,0.0724 -0.30687,0.13993 -0.45047,0.22754 -0.35124,0.21427 -0.68809,0.45126 -1.03213,0.67689 -0.30543,0.24925 -0.62213,0.48529 -0.91628,0.74774 -0.78151,0.69726 -1.70917,1.6551 -2.00806,2.69387 -0.0488,0.16951 -0.0558,0.34833 -0.0836,0.52248 0.0202,0.16199 0.0249,0.32672 0.0608,0.48599 0.15918,0.7073 0.58371,1.31952 1.15408,1.75454 0.41598,0.26835 0.86997,0.52001 1.3784,0.52789 0,0 -0.69764,0.50687 -0.69764,0.50687 z"
     inkscape:connector-curvature="0" />
  <path
     style="fill:#999999"
     id="path3095"
     d="m 182.16063,175.97337 c -1.07921,-0.57751 -1.87213,-1.38419 -2.48096,-2.4342 -0.64513,-1.35726 -0.7369,-2.86398 -0.80893,-4.3405 -0.10345,-1.20365 -0.037,-2.37246 0.37972,-3.50969 0.28983,-0.64497 0.7957,-1.11769 1.40348,-1.46582 3.501,-2.00541 2.28326,-1.52805 4.16278,-2.20186 1.14383,-0.35821 2.31791,-0.62805 3.50697,-0.38321 1.29061,0.39207 1.99353,1.56072 2.71204,2.61302 0.79329,1.28096 1.39271,2.67005 1.8786,4.09289 0.37664,1.14637 0.51442,2.34746 0.58913,3.54592 -0.0127,0.31814 0.006,0.49215 -0.099,0.79027 -0.0572,0.1613 -0.20288,0.41853 -0.36043,0.51161 -3.144,1.85736 -2.03421,1.67576 -3.62558,1.86523 -0.96481,0.0933 -1.91627,0.0921 -2.8584,-0.14127 -1.16947,-0.30683 -2.12839,-1.05289 -3.17693,-1.61366 0,0 2.86892,-1.87142 2.86892,-1.87142 l 0,0 c 1.01079,0.5721 1.96292,1.28082 3.121,1.53207 0.92226,0.17221 1.8632,0.16435 2.79044,0.0152 1.35822,-0.39747 0.34164,-0.13129 -2.32989,1.48664 -0.0804,0.0488 0.17772,-0.0672 0.25495,-0.12084 0.30026,-0.20855 0.34963,-0.54061 0.3679,-0.88046 -0.0533,-1.17343 -0.16415,-2.35045 -0.52212,-3.47608 -0.46872,-1.39533 -1.04374,-2.76457 -1.83114,-4.01273 -0.67616,-0.98475 -1.34236,-2.0834 -2.58811,-2.36707 -1.15311,-0.15076 -2.28998,0.14316 -3.37816,0.51544 -1.53075,0.62902 -0.62683,0.29364 1.70653,-1.12898 0.16471,-0.10042 -0.34777,0.16903 -0.5103,0.27292 -0.39373,0.25169 -0.7318,0.57848 -0.96335,0.98486 -0.50472,1.07226 -0.56219,2.22043 -0.47979,3.39102 0.0628,1.42173 0.13109,2.87874 0.74245,4.19023 0.59752,1.01974 1.40324,1.75063 2.45194,2.30409 0,0 -2.92372,1.83646 -2.92372,1.83646 z"
     inkscape:connector-curvature="0" />
  <path
     style="fill:#999999"
     id="path3097"
     d="m 175.46752,189.93582 c -0.70184,-0.40604 -1.36921,-0.86792 -2.04088,-1.32117 -0.8992,-0.58386 -1.6885,-1.30877 -2.45529,-2.05277 -0.47296,-0.48738 -0.84028,-1.06071 -1.05641,-1.70676 -0.0483,-0.14461 -0.0824,-0.29361 -0.12366,-0.44041 -0.24229,-0.98699 -0.14242,-1.88033 0.11855,-2.84681 0.12305,-0.42681 0.30874,-0.83573 0.66121,-1.12171 0.35695,-0.28963 0.79788,-0.45697 1.2035,-0.67324 0.38256,-0.10667 0.78366,-0.17043 1.18159,-0.12862 0.24245,0.0255 0.57973,0.10605 0.81383,0.1569 1.08175,0.22829 2.03623,0.78279 2.94153,1.3945 0.50038,0.39587 1.01162,0.79309 1.43326,1.27588 0.1869,0.21398 0.25569,0.32571 0.41449,0.55425 0.29535,0.45988 0.5167,0.95182 0.63823,1.48403 0.0864,0.44315 0.0933,0.89537 0.0976,1.34515 -0.0128,0.38387 -0.023,0.73247 -0.18194,1.08684 -0.17521,0.28738 -0.47058,0.48507 -0.74839,0.66598 -0.29564,0.16935 -0.59128,0.33871 -0.88691,0.50807 -0.0521,0.0285 -0.20765,0.11544 -0.15637,0.0855 0.19286,-0.1128 0.77546,-0.44434 0.58121,-0.33393 -0.51985,0.29547 -0.70655,0.42385 -1.14289,0.6138 -0.23113,0.0857 -0.45283,0.18507 -0.69618,0.23151 -0.29114,0.0346 -0.57951,0.093 -0.86471,0.16066 -0.34621,0.0632 -0.64277,0.28743 -0.99008,0.3345 0,0 0.68402,-0.51622 0.68402,-0.51622 l 0,0 c 0.33673,-0.08 0.63916,-0.27115 0.98264,-0.3337 0.2891,-0.065 0.57994,-0.12076 0.87293,-0.16532 0.23554,-0.0567 0.45552,-0.15578 0.68142,-0.24172 0.0907,-0.0397 0.35463,-0.17488 0.27031,-0.12301 -0.19464,0.11973 -0.7914,0.45742 -0.59247,0.34493 0.2935,-0.16595 0.58358,-0.33791 0.87622,-0.50537 0.0514,-0.0294 0.20671,-0.11581 0.15593,-0.0853 -0.18823,0.11315 -0.37893,0.22215 -0.56839,0.33322 0.20772,-0.12366 0.51339,-0.33174 0.67988,-0.50618 0.0329,-0.0345 0.0569,-0.0765 0.0853,-0.11473 0.0574,-0.11038 0.0958,-0.16957 0.12766,-0.29177 0.0643,-0.24711 0.0496,-0.51145 0.0775,-0.76308 -0.003,-0.44458 -0.007,-0.89174 -0.0866,-1.3307 -0.11481,-0.52314 -0.32787,-1.00746 -0.61416,-1.46093 -0.15587,-0.22994 -0.21627,-0.33211 -0.40074,-0.54788 -0.41123,-0.48103 -0.9083,-0.88372 -1.40442,-1.27223 -0.90361,-0.60604 -1.85837,-1.14672 -2.93914,-1.35841 -0.27213,-0.0546 -0.53665,-0.11734 -0.8143,-0.1376 -0.39474,-0.0288 -0.79219,0.0405 -1.16656,0.16113 0.156,-0.10173 0.31633,-0.1971 0.468,-0.30518 0.0749,-0.0534 -0.163,0.0867 -0.23742,0.14086 -0.36581,0.26606 -0.5679,0.66307 -0.69597,1.08693 -0.0403,0.13907 -0.0871,0.27642 -0.12097,0.41719 -0.18936,0.78666 -0.21153,1.60219 -0.0198,2.39061 0.0408,0.14392 0.0745,0.29 0.12227,0.43175 0.21352,0.63392 0.57973,1.19454 1.0394,1.67672 0.75581,0.74639 1.52784,1.48058 2.4308,2.05028 0.6816,0.44986 1.35891,0.91195 2.08721,1.28442 0,0 -0.72178,0.46918 -0.72178,0.46918 z"
     inkscape:connector-curvature="0" />
  <path
     style="fill:#b3b3b3"
     id="path3099"
     d="m 182.50002,156.54646 c -0.92917,0.18039 -1.34141,0.007 -2.17358,-0.43252 -1.83226,-1.08542 -3.37509,-2.58413 -4.93993,-4.01244 -1.11597,-1.06842 -2.29211,-2.08135 -3.32112,-3.23719 -0.59931,-0.67319 -0.72719,-0.87505 -1.2596,-1.58703 -0.94489,-1.27611 -1.41461,-2.76928 -1.74774,-4.29913 -0.1714,-0.85391 -0.29179,-1.70678 -0.0987,-2.56337 0.22832,-0.56243 0.70216,-0.94361 1.21944,-1.23687 2.03496,-1.15367 1.35287,-0.87558 2.73334,-1.34476 1.88442,-0.471 3.83846,-0.63001 5.77625,-0.66377 0.83348,0.0367 1.66267,0.10762 2.4544,0.38998 0.91287,0.32557 1.7317,0.84471 2.55254,1.34769 1.80506,1.14717 3.49149,2.47467 5.0846,3.89922 0.896,0.73795 1.5461,1.65228 2.04516,2.68853 0.37425,0.94963 0.62325,1.94528 0.8198,2.94537 0.13382,0.85927 0.19831,1.73115 0.17182,2.60047 -0.0497,0.69957 -0.0851,1.30488 -0.504,1.88687 -0.0753,0.0678 -0.1454,0.14188 -0.22604,0.20324 -0.87059,0.66244 -2.19519,1.25467 -3.25189,1.75723 -0.91621,0.46149 -1.87862,0.81109 -2.86413,1.08998 -1.07861,0.25896 -2.19452,0.3149 -3.29977,0.29427 -0.48586,0.008 -0.95967,-0.0638 -1.4321,-0.16538 0,0 1.3922,-0.96825 1.3922,-0.96825 l 0,0 c 0.46137,0.0938 0.92428,0.15769 1.39731,0.15012 1.09939,0.008 2.20789,-0.0567 3.27552,-0.33793 0.98111,-0.29016 1.93709,-0.65153 2.85071,-1.11516 0.76414,-0.37163 0.0896,-0.041 0.81659,-0.40433 0.12447,-0.0622 0.49057,-0.26129 0.37416,-0.18507 -2.12655,1.39231 -1.09483,0.64268 -0.60476,0.35267 0.48852,-0.54339 0.49392,-1.09038 0.56011,-1.79384 0.0469,-0.85778 -0.0234,-1.72043 -0.14594,-2.56977 -0.18382,-0.98875 -0.42428,-1.97255 -0.79337,-2.90983 -0.48875,-1.01267 -1.12087,-1.91286 -1.97915,-2.65346 -1.5611,-1.44309 -3.23229,-2.77216 -5.04636,-3.88588 -0.82209,-0.48941 -1.63906,-0.98681 -2.55193,-1.29403 -0.78236,-0.2633 -1.59976,-0.32837 -2.41908,-0.35725 -1.93344,0.0389 -3.88744,0.18636 -5.75542,0.7146 -1.15254,0.42802 -0.79973,0.35493 0.1345,-0.27906 0.14885,-0.10101 -0.31376,0.17694 -0.46218,0.27856 -0.32154,0.22016 -0.60316,0.48228 -0.78562,0.82975 -0.23032,0.83177 -0.1181,1.6704 0.0345,2.51042 0.30612,1.5145 0.74687,2.99402 1.67463,4.25851 0.52118,0.70468 0.65157,0.9115 1.2386,1.57834 1.01929,1.15786 2.19147,2.16795 3.30364,3.23293 1.56208,1.4217 3.10797,2.91802 4.97535,3.93652 0.86526,0.40989 1.22724,0.50833 2.15771,0.31289 0,0 -1.38039,1.03816 -1.38039,1.03816 z"
     inkscape:connector-curvature="0" />
  <path
     style="fill:#b3b3b3"
     id="path3101"
     d="m 22.028994,125.18784 c -1.964933,-1.35719 -3.778828,-2.92826 -5.519082,-4.56062 -2.094436,-2.11457 -3.923198,-4.45373 -5.696775,-6.83688 -1.6759663,-2.33353 -3.3204583,-4.67943 -4.6928164,-7.20654 -1.2505902,-2.44334 -2.2185444,-5.00941 -3.0316585,-7.626751 -0.7388143,-1.99841 -1.1917435,-4.06026 -1.4036059,-6.17505 -0.3334435,-2.32149 0.3554142,-4.39929 1.3353274,-6.46402 1.1347533,-2.1133 2.5453283,-4.07575 4.0520514,-5.93852 2.1679819,-2.82558 5.282799,-4.12867 8.356922,-5.87449 1.767788,-0.80578 3.69734,-0.97513 5.610775,-1.0842 1.517348,-0.14756 2.995782,-0.0531 4.488606,0.21002 0.928532,0.10719 1.777742,0.50484 2.487352,1.10305 0.580712,0.43491 1.152804,0.87742 1.748022,1.2921 0,0 -4.117191,2.61813 -4.117191,2.61813 l 0,0 c -0.593373,-0.43207 -1.188107,-0.86103 -1.768303,-1.31071 -0.690824,-0.5157 -1.476114,-0.81401 -2.335903,-0.91006 -1.453853,-0.24895 -2.907428,-0.26939 -4.379422,-0.14677 -1.889756,0.141 -3.784701,0.36664 -5.494635,1.2499 6.840503,-4.02006 1.198036,-1.06013 -0.174368,0.9688 -1.5148587,1.84186 -2.953755,3.76092 -4.1205684,5.84646 -0.9776116,1.97887 -1.7391703,3.95905 -1.4190525,6.21284 0.1935406,2.08776 0.6088008,4.13079 1.3240132,6.10819 0.7840194,2.59432 1.7392025,5.131701 2.9857317,7.543071 1.359084,2.50661 2.95937,4.85407 4.627232,7.16471 1.770837,2.35265 3.584926,4.67254 5.68541,6.7456 1.724652,1.60792 3.510942,3.19493 5.534908,4.41764 0,0 -4.08297,2.6541 -4.08297,2.6541 z"
     inkscape:connector-curvature="0" />
  <path
     style="fill:#e6e6e6"
     id="path3103"
     d="m 23.230407,77.475109 c -1.562159,-1.4347 -2.614516,-3.197 -3.310226,-5.1806 -0.644787,-2.53379 -1.071529,-5.1212 -1.448998,-7.7069 -0.513001,-2.66488 -0.751695,-5.36525 -0.885358,-8.072 -0.126081,-2.85108 0.336777,-5.62755 1.097568,-8.36104 1.012451,-2.72376 2.227229,-5.37801 3.675111,-7.89746 1.460751,-2.5784 3.298719,-4.88809 5.420942,-6.94579 3.499022,-3.0176 7.649684,-5.19946 11.902007,-6.96507 3.291853,-1.2129 6.717645,-1.96732 10.16976,-2.54653 5.156621,-0.97592 10.381475,-1.53908 15.604679,-2.0142 2.910619,-0.26184 5.827547,-0.4412 8.749545,-0.48805 1.864402,0.0338 3.56183,0.82411 5.230546,1.57473 1.054784,0.44625 2.141487,0.81543 3.117208,1.42336 0,0 -4.089834,2.64461 -4.089834,2.64461 l 0,0 c -0.969355,-0.56488 -2.022575,-0.94661 -3.047437,-1.39649 -1.631921,-0.71519 -3.282578,-1.44639 -5.103826,-1.4085 -2.862962,0.0409 -5.723941,0.16775 -8.577847,0.40507 -5.240494,0.45595 -10.473258,1.06122 -15.636642,2.08675 -3.443205,0.62133 -6.868185,1.3867 -10.138661,2.65696 -0.490076,0.20848 -0.984045,0.40804 -1.470234,0.62543 -0.48486,0.21679 -1.871189,0.99033 -1.442429,0.67688 0.862697,-0.63067 1.83098,-1.1027 2.756263,-1.63736 0.425569,-0.24589 -0.844891,0.50299 -1.256902,0.771 -1.271858,0.82733 -1.20229,0.82422 -2.368652,1.78277 -2.147468,2.00333 -4.005531,4.2695 -5.473632,6.82278 -1.471955,2.47552 -2.647484,5.10991 -3.71365,7.78355 -0.784194,2.68477 -1.27708,5.41129 -1.171397,8.22353 0.134242,2.69145 0.362067,5.37726 0.876925,8.02665 0.358199,2.55767 0.798899,5.10961 1.419265,7.61756 0.66162,1.90376 1.663407,3.61232 3.250671,4.90121 0,0 -4.134765,2.59715 -4.134765,2.59715 z"
     inkscape:connector-curvature="0" />
  <path
     style="fill:#999999"
     id="path3105"
     d="m 74.660487,24.468689 c 2.516274,-2.10813 5.113947,-4.12147 7.618649,-6.24454 2.586721,-2.22918 5.23269,-4.386685 7.987811,-6.404247 3.655092,-2.5391677 7.433907,-4.9316387 11.437283,-6.8881817 2.00984,-1.034554 4.106,-1.798528 6.26566,-2.442409 1.59961,-0.489528 3.24504,-0.7669289 4.91002,-0.8893119 1.34306,0.06862 2.61797,0.4842969 3.79363,1.1195119 2.48441,1.235952 4.79858,2.770611 7.25663,4.059794 3.00814,1.533009 5.86847,3.3201767 8.61613,5.2770177 2.15758,1.46079 4.27953,2.951202 6.34499,4.539286 1.92105,1.54448 3.66713,3.29219 5.51768,4.91883 1.85195,1.76003 3.75179,3.47027 5.46482,5.36862 1.68271,1.60893 2.97454,3.52971 4.24387,5.46339 1.23242,2.07399 2.13168,4.31045 2.74551,6.63769 0.78456,3.12744 0.40926,6.33332 0.0499,9.49105 -0.3849,2.67921 -0.52074,5.46898 -1.61387,7.97799 -1.53821,2.08704 -0.2337,0.49302 -5.21046,3.32189 0,0 3.81077,-3.00507 3.81077,-3.00507 l 0,0 c -3.7251,2.31674 -4.50758,3.15313 -2.99747,1.67975 1.28431,-2.40494 1.37681,-5.22923 1.77453,-7.87714 0.36479,-3.09417 0.74485,-6.24529 -0.009,-9.31269 -0.59944,-2.2787 -1.49947,-4.45463 -2.69215,-6.49133 -1.24808,-1.91914 -2.54426,-3.80327 -4.20033,-5.40278 -1.69919,-1.88524 -3.57513,-3.59255 -5.42275,-5.32977 -1.84216,-1.62384 -3.59756,-3.35028 -5.51761,-4.88277 -2.04896,-1.59097 -4.16372,-3.07379 -6.29966,-4.545907 -2.72797,-1.94236 -5.55404,-3.738305 -8.55096,-5.2424327 -2.47141,-1.29459 -4.82865,-2.79745 -7.35411,-3.987987 -1.14688,-0.541478 -2.37165,-0.930376 -3.65479,-0.890815 -1.6307,0.148055 -3.23947,0.449427 -4.80506,0.937601 -2.1425,0.652591 -4.205455,1.483655 -6.205192,2.498068 -2.028063,1.028561 -1.548168,0.812608 1.822941,-1.153862 0.409171,-0.238683 -0.822786,0.470255 -1.223755,0.722472 -0.862749,0.542679 -1.709041,1.111137 -2.55867,1.674131 -0.449708,0.297997 -0.891228,0.608163 -1.336849,0.9122357 -2.771835,2.004911 -5.431358,4.153183 -8.02746,6.380946 -2.450758,2.10354 -5.033047,4.0503 -7.449097,6.19245 0,0 -4.531483,1.81852 -4.531483,1.81852 z"
     inkscape:connector-curvature="0" />
  <path
     style="fill:#cccccc"
     id="path3109"
     d="m 156.8351,57.405209 c 1.5288,1.81512 2.9255,3.73713 4.27809,5.68571 1.57867,2.26872 3.07029,4.60754 4.39626,7.03376 1.23876,2.35289 2.3564,4.76642 3.56851,7.13271 1.57959,2.92508 3.49929,5.64283 5.31125,8.42395 1.13111,1.85295 2.21011,3.74122 3.20246,5.6725 0.63046,1.40384 1.23487,2.80876 1.60295,4.3059 0.27385,1.84102 0.43624,3.69848 0.63982,5.549971 0.18186,2.03934 0.31865,4.09074 0.23448,6.13793 -0.33951,2.5502 -1.03328,5.04499 -1.7253,7.5191 -0.82603,3.02689 -2.33811,5.73866 -4.01677,8.36028 -1.18178,1.82499 -2.51731,3.55074 -3.91419,5.21586 -0.18012,0.19019 -0.36025,0.3804 -0.54038,0.5706 0,0 -4.47052,1.85312 -4.47052,1.85312 l 0,0 c 0.18825,-0.1801 0.37649,-0.3602 0.56474,-0.5403 1.42678,-1.6501 2.78926,-3.36775 3.99679,-5.18446 1.70354,-2.5727 3.25513,-5.2347 4.08834,-8.23329 0.67772,-2.43731 1.32927,-4.89559 1.71653,-7.39694 0.12269,-2.02256 -0.0276,-4.05177 -0.20168,-6.06802 -0.2015,-1.83016 -0.38049,-3.663131 -0.62911,-5.485931 -0.34816,-1.46722 -0.95159,-2.82844 -1.54785,-4.20941 -0.95443,-1.93206 -2.00489,-3.81703 -3.10107,-5.67187 -1.79939,-2.80795 -3.70367,-5.55174 -5.35395,-8.4526 -1.22602,-2.35498 -2.32175,-4.77496 -3.56126,-7.12334 -1.32306,-2.40782 -2.79057,-4.74202 -4.36797,-6.99052 -1.34866,-1.92043 -2.71576,-3.84615 -4.32897,-5.5562 0,0 4.1588,-2.54851 4.1588,-2.54851 z"
     inkscape:connector-curvature="0" />
  <path
     style="fill:#666666"
     id="path3111"
     d="m 169.74492,130.44699 c 0.002,3.22692 -0.3682,6.40969 -1.06342,9.55566 -0.77272,3.42266 -2.08441,6.65621 -4.02505,9.57456 -1.86769,2.61647 -4.43256,4.52459 -7.15514,6.16552 -1.83627,1.02479 -3.64124,2.1078 -5.50882,3.07437 -0.38069,0.19702 -2.75429,1.00298 -3.16624,1.13561 -1.81271,0.58368 -3.6349,1.1028 -5.48101,1.56829 -4.50849,1.10244 -9.14861,1.53523 -13.76956,1.84253 -2.16685,0.08 -4.33992,0.3063 -6.50186,0.0369 -1.54638,-0.19271 -1.73472,-0.29337 -3.27266,-0.6843 -3.41001,-0.88374 -6.58878,-2.39227 -9.72736,-3.95489 -2.49946,-1.29496 -4.84333,-2.82939 -7.03995,-4.58211 -1.53588,-1.25273 -2.84707,-2.76791 -4.101448,-4.29748 -0.177336,-0.23909 -0.354681,-0.47817 -0.532017,-0.71726 0,0 4.153405,-2.46117 4.153405,-2.46117 l 0,0 c 0.17164,0.23261 0.34329,0.46523 0.51494,0.69784 1.24129,1.49642 2.5094,2.99994 4.02382,4.22854 2.16113,1.73149 4.46531,3.2614 6.93169,4.5313 3.11302,1.54817 6.2758,3.02657 9.66659,3.8683 1.47311,0.3402 1.76454,0.45732 3.24394,0.61003 2.13571,0.22045 4.28429,3.4e-4 6.42185,-0.0608 4.6066,-0.2986 9.22843,-0.73236 13.70735,-1.9062 2.37692,-0.63383 4.76483,-1.3056 7.06676,-2.18144 0.52489,-0.1997 1.97587,-1.01435 1.55958,-0.63739 -0.75646,0.685 -1.74308,1.06184 -2.61462,1.59276 2.73032,-1.57366 5.31783,-3.42382 7.22867,-5.9716 2.00916,-2.84079 3.34641,-6.03328 4.13231,-9.42603 0.70618,-3.08823 1.11819,-6.22076 0.98275,-9.39761 0,0 4.3255,-2.20396 4.3255,-2.20396 z"
     inkscape:connector-curvature="0" />
  <path
     style="fill:#b3b3b3"
     id="path3113"
     d="m 102.68612,149.84761 c -1.44464,2.31988 -3.354409,4.25521 -5.370287,6.07499 -3.355637,3.04236 -7.318025,5.34882 -11.435525,7.2097 -2.084296,0.88932 -4.263423,1.42209 -6.504732,1.70292 -1.943158,0.2291 -3.881738,0.19409 -5.823655,0.0101 -1.878585,-0.16906 -3.728707,-0.54884 -5.602269,-0.76678 -1.428253,-0.27318 -2.859109,-0.50881 -4.280618,-0.81338 -1.935477,-0.47812 -3.855333,-1.01266 -5.767143,-1.58034 -2.067314,-0.63997 -3.975643,-1.63762 -5.824623,-2.74279 -1.785304,-1.01384 -3.081628,-2.59869 -4.402269,-4.12739 -1.294887,-1.35164 -2.388496,-2.85297 -3.400786,-4.42178 -0.865249,-1.60564 -1.457591,-3.34059 -2.129088,-5.03256 -0.508198,-1.32353 -0.924631,-2.68496 -1.296266,-4.05314 -0.266886,-0.81295 -0.671702,-1.56604 -0.9838,-2.36056 0,0 4.255558,-2.37077 4.255558,-2.37077 l 0,0 c 0.312421,0.81457 0.737435,1.57862 1.000157,2.41347 0.349883,1.35666 0.759296,2.70338 1.239359,4.01902 0.657978,1.66313 1.238993,3.36873 2.080318,4.9502 1.007145,1.54342 2.079216,3.03365 3.350971,4.37423 1.29156,1.49031 2.579006,3.0131 4.325004,3.99364 1.822612,1.07848 3.706024,2.04281 5.74534,2.65044 1.917399,0.55453 3.840092,1.08487 5.788024,1.52187 1.410136,0.29851 2.832935,0.53117 4.251925,0.78313 1.857407,0.24966 3.697472,0.63187 5.568732,0.76889 1.920981,0.15711 3.84479,0.14407 5.760629,-0.0965 2.205037,-0.31949 4.34936,-0.88376 6.39097,-1.79376 2.140383,-0.99128 1.626304,-0.80716 -1.672367,1.19291 -0.40524,0.24571 0.812632,-0.48823 1.210596,-0.74557 1.33352,-0.86229 2.614507,-1.80814 3.772521,-2.89813 1.984248,-1.75911 3.927922,-3.60081 5.28578,-5.90735 0,0 4.467544,-1.9547 4.467544,-1.9547 z"
     inkscape:connector-curvature="0" />
  <path
     style="fill:#b3b3b3"
     id="path3117"
     d="m 41.056425,145.76873 c -2.144968,0.0664 -4.238241,-0.0437 -6.32912,-0.53431 -1.935616,-0.52084 -3.726096,-1.35429 -5.448225,-2.36179 -1.526676,-0.97133 -2.993162,-2.03625 -4.400419,-3.17324 -1.070739,-0.79419 -2.09847,-1.65934 -3.032416,-2.61168 -0.956413,-0.75097 -1.807033,-1.58664 -2.544543,-2.55256 -0.964391,-1.12312 -1.521301,-2.40806 -1.818517,-3.84134 -0.221924,-1.47415 -0.217411,-2.96819 -0.226018,-4.45508 -0.09409,-1.25774 0.103278,-2.46637 0.393668,-3.68308 0,0 4.364333,-2.09296 4.364333,-2.09296 l 0,0 c -0.29865,1.18252 -0.547401,2.34358 -0.43994,3.57447 -6.45e-4,1.45775 -0.0088,2.92253 0.18616,4.37017 0.258478,1.36776 0.775451,2.58614 1.707381,3.64445 0.745763,0.93666 1.604297,1.7358 2.527081,2.4967 0.92575,0.93117 1.927589,1.79031 2.973226,2.58384 1.390769,1.11947 2.839857,2.16883 4.354937,3.11423 1.689056,0.9678 3.449293,1.77036 5.344341,2.25416 2.091911,0.43834 4.194628,0.50302 6.328218,0.40534 0,0 -3.940147,2.86268 -3.940147,2.86268 z"
     inkscape:connector-curvature="0" />
  <path
     style="fill:#6f8a91"
     id="path3223"
     d="m 217.17514,198.54311 c -0.86445,-0.93001 -1.28493,-2.12956 -1.62243,-3.32868 -0.31087,-1.47401 -0.45239,-2.98872 -0.28927,-4.48827 0.183,-0.86975 0.47981,-1.76093 1.20562,-2.31745 2.77429,-1.23982 3.08336,-1.69683 5.21463,-0.54809 1.21959,0.66829 2.14312,1.715 3.02086,2.76945 0.98501,1.23573 1.83661,2.56535 2.48624,4.00557 0.33602,0.85097 0.61074,1.75461 0.57268,2.67788 -0.0261,0.0839 -0.0337,0.17613 -0.0783,0.25185 -0.087,0.14737 -0.27702,0.26367 -0.43012,0.32062 -1.73213,0.64431 -2.32342,1.04627 -3.75109,1.15772 -0.9556,0.0292 -1.91574,0.0626 -2.86925,-0.0175 -0.5037,-0.0672 -0.98143,-0.24394 -1.46173,-0.40062 0,0 2.66932,-0.97156 2.66932,-0.97156 l 0,0 c 0.48028,0.15756 0.95869,0.33234 1.46246,0.40036 0.95659,0.0788 1.91955,0.0467 2.87806,0.0143 0.14129,-0.0118 0.28309,-0.0184 0.42388,-0.0351 0.11965,-0.0143 0.46845,-0.10337 0.35684,-0.0579 -6.14745,2.50309 -2.32153,1.14672 -1.97469,0.57111 0.0461,-0.0765 0.0566,-0.16947 0.0848,-0.2542 0.0583,-0.92362 -0.21217,-1.83541 -0.53076,-2.69315 -0.63176,-1.44884 -1.48505,-2.77963 -2.48033,-4.00772 -0.88164,-1.05438 -1.81446,-2.09561 -3.03597,-2.76394 -0.31795,-0.16738 -0.70745,-0.38916 -1.05191,-0.50903 -0.14692,-0.0511 -0.2993,-0.088 -0.45296,-0.11226 -0.1305,-0.0206 -0.51544,0.0344 -0.39575,-0.0215 0.65495,-0.30619 3.35534,-1.3049 2.03322,-0.7553 -0.73684,0.56041 -1.04855,1.45319 -1.24609,2.33217 -0.17172,1.50104 -0.0423,3.01558 0.28506,4.4898 0.33888,1.20043 0.76598,2.41291 1.67256,3.31044 0,0 -2.69556,0.9811 -2.69556,0.9811 z"
     inkscape:connector-curvature="0" />
  <path
     style="fill:#6f8a91"
     id="path3227"
     d="m 226.51769,185.05706 c -1.6498,-1.04767 -3.14656,-2.22594 -4.49236,-3.64181 -1.48887,-1.66042 -2.33915,-3.71887 -2.91633,-5.8437 -0.18106,-1.23581 -0.88391,-2.87184 0.0134,-3.99251 0.16079,-0.20082 0.3827,-0.3439 0.57405,-0.51584 3.24882,-1.9982 6.92598,-2.90397 10.65353,-3.11444 1.64294,-0.19685 3.04757,0.0782 4.46214,0.91037 1.97435,1.14202 3.25044,3.02133 4.37975,4.94354 1.22977,2.36327 2.05191,4.89307 2.52397,7.50833 0.30404,1.76546 0.46302,3.46505 -0.21457,5.14835 -0.55424,1.16928 -1.43543,1.94544 -2.64962,2.35824 -2.03188,0.6908 -4.0684,1.36791 -6.1026,2.05187 -2.21182,-0.26376 -3.7812,-1.8148 -5.19629,-3.4003 0,0 5.32676,-1.93879 5.32676,-1.93879 l 0,0 c 1.41527,1.6087 3.00887,3.13768 5.23891,3.3848 -1.54574,0.61903 -3.09397,1.23187 -4.63722,1.8571 -0.22447,0.091 0.46278,-0.14847 0.68071,-0.25417 0.90261,-0.43776 1.5326,-1.22701 1.97351,-2.10575 0.67867,-1.68419 0.54389,-3.39214 0.25582,-5.16336 -0.45732,-2.62145 -1.23921,-5.16081 -2.49749,-7.51797 -1.15565,-1.91773 -2.44945,-3.7949 -4.4467,-4.91917 -1.41102,-0.82392 -2.81133,-1.10832 -4.44854,-0.91532 -0.94248,0.0513 -1.88444,0.10425 -2.81587,0.26899 -0.32091,0.0568 -1.2577,0.32853 -0.95579,0.2058 5.94028,-2.41464 5.73218,-2.34713 3.83567,-1.26122 -0.18922,0.17118 -0.40872,0.31391 -0.56764,0.51352 -0.89805,1.12796 -0.22801,2.75851 -0.052,4.00655 0.56419,2.13151 1.41978,4.1882 2.92129,5.8419 1.35319,1.42002 2.85022,2.62323 4.54341,3.62323 0,0 -5.38991,1.96176 -5.38991,1.96176 z"
     inkscape:connector-curvature="0" />
  <path
     style="fill:#cccccc"
     id="path3229"
     d="m 235.08823,158.62143 c -0.79968,-0.17514 -1.453,-0.69446 -2.09367,-1.17378 -1.68261,-1.38244 -2.89399,-3.22816 -3.99792,-5.08067 -0.78034,-1.47187 -1.44838,-3.00696 -1.93186,-4.6027 -0.27145,-0.89594 -0.30676,-1.13801 -0.50172,-2.03024 -0.18921,-0.95866 -0.26267,-2.00289 0.29974,-2.86435 0.32267,-0.49425 0.59386,-0.62349 1.06666,-0.97057 0.85001,-0.44061 0.74462,-0.4275 1.68688,-0.73816 0.74973,-0.24718 1.49718,-0.50436 2.25923,-0.71046 0.34491,-0.0933 0.70221,-0.1335 1.05563,-0.18604 0.85079,-0.12646 1.28202,-0.1472 2.13738,-0.21664 1.39905,-0.09 2.77969,0.079 4.11793,0.49221 0.90489,0.27941 1.31947,0.47575 2.19972,0.84031 2.04269,0.92716 3.89815,2.226 5.5578,3.72987 0.33877,0.30697 0.65921,0.63357 0.98883,0.95035 1.50557,1.5982 2.99431,3.25757 4.11848,5.15573 0.2227,0.37604 0.41336,0.77017 0.62004,1.15526 0.72375,1.56758 1.19142,3.23165 1.46462,4.93354 0.16699,1.04028 0.18641,1.46565 0.27979,2.51312 0.10827,1.49963 0.12058,3.01453 -0.006,4.51412 -0.0504,0.59409 -0.13513,1.12806 -0.21968,1.7149 -0.18333,0.67455 -0.22406,1.51906 -0.76089,2.03849 -0.0597,0.0578 -0.13228,0.10055 -0.19841,0.15083 -1.48678,0.68999 -1.96229,0.8768 -3.34633,0.47931 -1.91211,-0.76384 -3.64117,-1.91627 -5.38027,-3.00324 -2.70452,-1.71096 -5.30616,-3.57738 -7.90718,-5.43997 -2.12442,-1.50937 -4.24517,-3.02291 -6.29669,-4.63057 -1.69839,-1.28824 -3.31664,-2.67543 -4.97045,-4.01897 0,0 1.27029,-0.46235 1.27029,-0.46235 l 0,0 c 1.62091,1.37205 3.24018,2.7453 4.92923,4.03397 2.04081,1.61107 4.15239,3.12651 6.26443,4.64231 2.59291,1.87441 5.1844,3.75837 7.90897,5.43932 1.77274,1.08054 3.53938,2.22405 5.48852,2.96385 0.4014,0.10888 0.49095,0.15275 0.88164,0.19306 0.11365,0.0118 0.22824,0.0199 0.3424,0.0154 0.10718,-0.005 0.41482,-0.0899 0.31911,-0.0415 -0.26648,0.13482 -1.60085,0.64534 -0.83863,0.31525 0.72727,-0.5488 0.80534,-1.37556 1.02097,-2.21177 0.10503,-0.64852 0.18116,-1.05657 0.24414,-1.7238 0.14174,-1.50186 0.139,-3.0206 0.0338,-4.52402 -0.0908,-1.02538 -0.11447,-1.49573 -0.27694,-2.51417 -0.27157,-1.70229 -0.7421,-3.36543 -1.46194,-4.93451 -0.20622,-0.38525 -0.3962,-0.77965 -0.61869,-1.15574 -1.12267,-1.89777 -2.61549,-3.55401 -4.11307,-5.15771 -0.32933,-0.31688 -0.64957,-0.64349 -0.98799,-0.95065 -1.66174,-1.50825 -3.52601,-2.8037 -5.57713,-3.72283 -0.89905,-0.36873 -1.28936,-0.55392 -2.21303,-0.83547 -1.3394,-0.40828 -2.72097,-0.57838 -4.11999,-0.49145 -0.8551,0.0691 -1.28616,0.0896 -2.13687,0.21645 -0.3547,0.0529 -0.70083,0.19303 -1.05941,0.18741 -0.10489,-0.002 0.34572,-0.22056 0.2428,-0.20021 -0.55273,0.10928 -1.1717,0.47329 -1.66473,0.73011 -0.4694,0.34703 -0.7345,0.47436 -1.05581,0.9666 -0.56289,0.86238 -0.5088,1.91232 -0.33694,2.8779 0.18151,0.88094 0.21974,1.15489 0.48011,2.03811 0.47144,1.59917 1.14101,3.13507 1.91904,4.60736 0.22406,0.37246 0.43616,0.75236 0.67216,1.11737 0.94111,1.45547 2.03802,2.85403 3.40018,3.93621 0.65937,0.476 1.33436,0.99568 2.15222,1.15247 0,0 -1.34991,0.49133 -1.34991,0.49133 z"
     inkscape:connector-curvature="0" />
  <path
     style="fill:#cccccc"
     id="path3231"
     d="m 261.1762,140.22671 c -2.62291,-1.49574 -4.87758,-3.48463 -7.05751,-5.54985 -2.12005,-2.15831 -3.0393,-4.77091 -3.59981,-7.67199 -0.42878,-2.67449 -0.44024,-5.39118 -0.44099,-8.09269 0.002,-2.37348 0.006,-4.74697 0.009,-7.12045 -0.12293,-2.03036 0.61591,-3.89367 1.58814,-5.63253 1.22204,-1.74053 2.77984,-3.11276 4.74174,-3.92723 0.35031,-0.13623 0.69723,-0.2815 1.05092,-0.4087 2.91297,-1.04761 5.81648,-2.123031 8.74866,-3.115601 1.74953,-0.59224 3.74706,-0.59602 5.56058,-0.88522 2.21004,-0.42945 4.43836,-0.72275 6.68401,-0.87027 1.82455,-0.06 3.66263,-0.29331 5.42406,0.27121 0.89004,0.21831 1.61259,0.66973 2.3293,1.21371 0,0 -7.61665,2.772231 -7.61665,2.772231 l 0,0 c -0.71506,-0.54992 -1.43323,-1.00346 -2.32911,-1.213781 -1.75332,-0.57473 -3.59015,-0.33042 -5.40903,-0.27667 -2.22938,0.14348 -4.44216,0.429311 -6.63658,0.852991 -1.41833,0.22492 -2.853,0.33795 -4.26489,0.6009 -0.44146,0.0822 -1.73008,0.46328 -1.31522,0.29144 1.76255,-0.73006 9.35438,-3.524021 5.36438,-1.994931 -1.96219,0.815291 -3.51433,2.187061 -4.73852,3.926061 -0.96568,1.74061 -1.69905,3.6039 -1.58618,5.63181 -0.0163,2.37828 -0.0457,4.75648 -0.0485,7.13483 0.0174,2.70254 0.0115,5.41921 0.42993,8.09671 0.55273,2.90036 1.50133,5.50661 3.60314,7.67077 2.18182,2.08172 4.428,4.11649 7.12118,5.52668 0,0 -7.61206,2.77057 -7.61206,2.77057 z"
     inkscape:connector-curvature="0" />
  <path
     style="fill:#808080"
     id="path3233"
     d="m 274.6972,98.874449 c 0.10977,-3.42984 -0.0265,-6.86279 0.16861,-10.28904 0.24018,-3.63153 1.9513,-6.67891 3.84946,-9.67695 1.97814,-2.98723 4.49276,-5.5811 7.03193,-8.09295 3.04198,-2.94353 6.81604,-4.83863 10.63461,-6.55546 6.14334,-2.51815 12.3758,-4.97021 18.79955,-6.68045 2.33481,-0.5919 4.73422,-0.7743 7.13282,-0.83599 2.45282,-0.18811 4.7309,0.52749 7.00243,1.3332 2.60966,1.21332 5.08058,2.71595 7.50467,4.26299 1.86939,1.25807 3.70636,2.56761 5.42382,4.02747 0,0 -7.58306,2.76 -7.58306,2.76 l 0,0 c -1.69378,-1.47935 -3.51903,-2.79248 -5.38889,-4.04017 -2.42776,-1.54855 -4.9001,-3.066 -7.52567,-4.25536 -2.28036,-0.79924 -4.56026,-1.52273 -7.02075,-1.32652 -2.38004,0.0662 -4.76283,0.22971 -7.08065,0.817 -1.77688,0.47169 -1.29056,0.3148 -3.08299,0.90713 -0.59871,0.19786 -2.37807,0.83857 -1.79197,0.60601 11.5374,-4.57795 3.4496,-1.26809 1.0561,-0.28521 -3.79998,1.71085 -7.55229,3.60251 -10.5777,6.53475 -2.53598,2.51254 -5.04225,5.10955 -7.0255,8.0906 -1.8933,2.99837 -3.5978,6.05199 -3.85227,9.67797 -0.2139,3.41011 -0.0909,6.83081 -0.0495,10.24569 0,0 -7.62505,2.77529 -7.62505,2.77529 z"
     inkscape:connector-curvature="0" />
  <path
     style="fill:#b3b3b3"
     id="path3235"
     d="m 343.36179,61.198759 c 6.21872,-0.53817 12.44378,-0.92286 18.68107,-1.1707 9.44738,-0.31663 18.90054,-0.39678 28.35223,-0.4788 4.23458,-0.10691 8.45144,-0.35213 12.43344,1.27052 2.64143,0.97711 4.53284,2.95615 6.33862,5.03138 2.61589,3.07103 4.29172,6.66144 5.71414,10.39411 1.44412,4.12854 2.06108,8.48929 2.60594,12.81244 0.46423,3.94565 0.55214,7.91939 0.62387,11.887211 0.14085,2.63857 0.13934,5.02581 -0.6221,7.56143 -0.87958,1.85218 -2.44785,3.22041 -3.88909,4.62822 -3.20587,2.66476 -8.24542,3.67681 -11.76756,4.93067 0,0 7.5853,-2.76082 7.5853,-2.76082 l 0,0 c -12.70506,4.75889 -5.78252,2.691 -3.42511,0.59901 1.44878,-1.40605 3.02453,-2.77728 3.90444,-4.63381 0.76131,-2.49376 0.81813,-4.98947 0.70272,-7.59077 -0.0359,-3.973461 -0.1312,-7.952411 -0.5757,-11.904751 -0.54053,-4.32326 -1.17933,-8.68047 -2.60297,-12.81351 -1.43451,-3.73254 -3.14758,-7.31149 -5.78387,-10.36874 -1.82328,-2.05332 -3.73862,-4.01929 -6.35709,-5.02466 -3.88979,-1.62008 -8.02082,-1.44233 -12.17371,-1.36505 -9.41586,0.0193 -18.8335,0.092 -28.24386,0.43935 -6.38267,0.28361 -12.75432,0.70184 -19.11278,1.32784 0,0 7.61207,-2.77057 7.61207,-2.77057 z"
     inkscape:connector-curvature="0" />
  <path
     style="fill:#666666"
     id="path3237"
     d="m 417.90998,112.79852 c 2.66749,1.83808 5.01551,4.07796 7.29394,6.36793 2.70619,2.7396 4.29331,5.17293 5.72021,8.72277 1.13789,3.43353 1.81004,7.00382 2.2567,10.58742 0.37464,3.21152 0.41842,6.44806 0.45859,9.67725 -0.0847,3.6223 -0.9787,7.13212 -1.8523,10.62631 -1.08556,4.00924 -2.63364,7.87942 -4.54719,11.56112 -1.51838,3.6435 -4.26857,6.3079 -6.99065,9.04307 -2.72635,2.80856 -5.9096,5.0291 -9.25801,7.01793 -5.02738,2.87463 -10.51609,4.9113 -16.07093,6.50971 0,0 7.56753,-2.75436 7.56753,-2.75436 l 0,0 c 3.0128,-0.8642 3.33552,-0.98807 -5.00146,1.92477 -0.48696,0.17014 0.95577,-0.3889 1.42666,-0.59949 0.72228,-0.32302 2.30117,-1.09253 2.99423,-1.46211 0.53306,-0.28426 1.05349,-0.5916 1.58024,-0.88738 3.35214,-1.98471 6.53383,-4.20307 9.25655,-7.01741 2.73143,-2.74036 5.48535,-5.40792 7.0216,-9.05432 1.90634,-3.68254 3.46087,-7.54803 4.53756,-11.55762 0.85852,-3.4865 1.72963,-6.99263 1.79123,-10.6041 -0.0188,-3.23392 -0.068,-6.47338 -0.41915,-9.69159 -0.44671,-3.58347 -1.123,-7.15227 -2.26585,-10.58409 -1.43313,-3.53857 -3.00838,-5.99067 -5.71328,-8.7253 -2.28872,-2.30676 -4.66252,-4.56517 -7.40869,-6.32616 0,0 7.62247,-2.77435 7.62247,-2.77435 z"
     inkscape:connector-curvature="0" />
  <path
     style="fill:#cccccc"
     id="path3241"
     d="m 411.57261,185.95233 c -0.8662,2.21639 -2.14277,4.19802 -3.39828,6.20286 -1.52379,2.53958 -3.73537,4.46255 -6.12113,6.15951 -2.93016,2.33737 -6.08969,4.33302 -9.54922,5.77679 -5.11844,2.31589 -9.65999,3.85322 -15.06643,4.04755 -3.05019,0.0487 -6.101,0.01 -9.15135,-0.006 -3.87478,0.11883 -7.68732,-0.0205 -11.4869,-0.80722 -4.58559,-1.01411 -8.80544,-3.07117 -12.89412,-5.31762 -3.42139,-2.06644 -6.68694,-4.40295 -9.33546,-7.41175 -1.85222,-2.15957 -2.63835,-4.80752 -3.39643,-7.48252 -0.0907,-0.3797 -0.18135,-0.75941 -0.27203,-1.13913 0,0 7.57928,-2.75863 7.57928,-2.75863 l 0,0 c 0.0879,0.38073 0.17578,0.76145 0.26367,1.14217 0.74052,2.67503 1.52114,5.33222 3.35554,7.49739 2.60086,3.0265 5.8437,5.38145 9.24484,7.44475 4.09172,2.26549 8.33948,4.29316 12.93604,5.30236 3.8099,0.78615 7.63373,0.91559 11.5181,0.79587 3.06964,0.009 6.13985,0.0388 9.20917,-0.0153 1.21983,-0.0461 2.43829,-0.0903 3.64735,-0.27482 2.76013,-0.42127 7.95753,-2.43372 -3.67748,1.72197 3.46664,-1.44469 6.63937,-3.43282 9.56873,-5.7839 2.36266,-1.69423 4.54229,-3.61427 6.05445,-6.13523 1.25297,-1.98833 2.5297,-3.9557 3.33836,-6.18106 0,0 7.6333,-2.77829 7.6333,-2.77829 z"
     inkscape:connector-curvature="0" />
  <path
     style="fill:#cccccc"
     id="path3243"
     d="m 331.73378,194.21664 c -3.23892,-0.0691 -6.47349,0.24317 -9.69449,0.54629 -5.76262,0.54482 -11.54188,0.89474 -17.3254,1.11505 -2.71217,0.0992 -5.43192,0.19997 -8.12966,-0.17628 -1.65289,-0.23054 -2.07459,-0.38782 -3.68827,-0.80302 -3.20576,-0.87357 -6.14755,-2.35228 -8.91933,-4.15416 -2.00725,-1.38924 -3.61711,-3.19578 -5.00322,-5.18483 -1.36097,-1.86118 -1.87698,-4.039 -2.17384,-6.28006 -0.15138,-1.94174 -0.31443,-3.89889 -0.0124,-5.83123 0.20106,-1.31299 0.76474,-2.52856 1.31259,-3.72717 0.26742,-0.46198 0.5054,-0.93728 0.72705,-1.42236 0,0 3.79815,-1.38241 3.79815,-1.38241 l 0,0 c -0.22428,0.48546 -0.46503,0.96098 -0.73271,1.42441 -0.55516,1.20319 -1.13323,2.41951 -1.34414,3.73866 -0.30934,1.93422 -0.17901,3.89597 -0.0139,5.84079 0.28946,2.24227 0.8072,4.41979 2.16263,6.28414 1.38129,1.98675 2.99168,3.78879 4.98038,5.19314 2.74959,1.81036 5.66531,3.31223 8.862,4.17503 1.61343,0.41477 2.03496,0.57136 3.68657,0.80363 2.67989,0.37688 5.38207,0.28563 8.07725,0.19536 5.77445,-0.19908 11.54622,-0.52115 17.2959,-1.10431 3.30136,-0.32773 6.6138,-0.66057 9.93511,-0.63388 0,0 -3.8003,1.38321 -3.8003,1.38321 z"
     inkscape:connector-curvature="0" />
  <path
     style="fill:#999999"
     id="path3245"
     d="m 274.39832,172.79342 c -1.77648,-0.11819 -3.462,-0.71784 -5.07384,-1.43721 -1.95821,-0.91107 -3.81794,-1.99843 -5.57899,-3.24573 -1.52678,-1.10326 -2.9506,-2.31919 -4.13347,-3.78827 -1.0818,-1.36749 -1.3979,-3.01708 -1.56832,-4.70512 -0.21915,-2.13318 -0.0767,-4.24951 0.22499,-6.36335 0.25884,-1.63467 0.41251,-3.28089 0.65991,-4.91676 0.4523,-2.08211 1.3367,-4.05154 2.07971,-6.04419 0.82923,-2.15922 1.57011,-4.3547 2.04587,-6.62008 0,0 3.74892,-1.36449 3.74892,-1.36449 l 0,0 c -0.50355,2.26764 -1.25696,4.4659 -2.08511,6.63435 -0.72843,1.98391 -1.58686,3.94884 -2.0194,6.02224 -0.24525,1.64185 -0.41654,3.29259 -0.69553,4.92973 -0.30731,2.11296 -0.44336,4.22498 -0.20718,6.35687 0.18561,1.68403 0.50012,3.33414 1.57861,4.70137 1.16597,1.478 2.59086,2.68736 4.10609,3.79823 1.76008,1.24897 3.62115,2.33688 5.58094,3.24502 1.63514,0.7208 3.34632,1.32922 5.14932,1.40974 0,0 -3.81252,1.38765 -3.81252,1.38765 z"
     inkscape:connector-curvature="0" />
  <path
     style="fill:#e6e6e6;stroke:#000000;stroke-width:0.80159009px;stroke-linecap:butt;stroke-linejoin:miter;stroke-opacity:1"
     d="M 34.794389,56.304509 C 65.475729,11.663214 75.624229,5.8710633 75.624229,5.8710633 L 66.145642,35.023779 74.890858,6.1946553 43.053427,11.481058 74.890858,6.1946553"
     id="path3586"
     inkscape:connector-curvature="0" />
  <path
     style="fill:#cccccc;stroke:#000000;stroke-width:0.64468396px;stroke-linecap:butt;stroke-linejoin:miter;stroke-opacity:1"
     d="M 384.43237,90.90007 C 423.2842,71.190854 432.68022,71.008206 432.68022,71.008206 l -17.91703,16.93578 17.2746,-16.98964 -24.51615,-8.524916 24.51615,8.524916"
     id="path3586-8"
     inkscape:connector-curvature="0" />
  <text
     xml:space="preserve"
     style="font-size:27.30784798px;font-style:normal;font-weight:normal;line-height:125%;letter-spacing:0px;word-spacing:0px;fill:#000000;fill-opacity:1;stroke:none;font-family:Sans"
     x="367.69672"
     y="98.138885"
     id="text3475-8"
     sodipodi:linespacing="125%"
     transform="scale(0.93880371,1.0651854)"><tspan
       sodipodi:role="line"
       x="374.12366"
       y="98.138885"
       id="tspan3491-4"
       style="font-style:normal;font-variant:normal;font-weight:normal;font-stretch:normal;text-align:center;text-anchor:middle;fill:#93a7ac;font-family:Domestic Manners;-inkscape-font-specification:Domestic Manners">Sinon </tspan><tspan
       sodipodi:role="line"
       x="374.12366"
       y="132.2737"
       style="font-style:normal;font-variant:normal;font-weight:normal;font-stretch:normal;text-align:center;text-anchor:middle;fill:#93a7ac;font-family:Domestic Manners;-inkscape-font-specification:Domestic Manners"
       id="tspan3875">connectez </tspan><tspan
       sodipodi:role="line"
       x="367.69672"
       y="166.40851"
       style="font-style:normal;font-variant:normal;font-weight:normal;font-stretch:normal;text-align:center;text-anchor:middle;fill:#93a7ac;font-family:Domestic Manners;-inkscape-font-specification:Domestic Manners"
       id="tspan3877">vous !</tspan></text>
</svg>
