<?xml version="1.0" encoding="UTF-8" standalone="no"?>
<!-- Created with Inkscape (http://www.inkscape.org/) -->

<svg
   xmlns:dc="http://purl.org/dc/elements/1.1/"
   xmlns:cc="http://creativecommons.org/ns#"
   xmlns:rdf="http://www.w3.org/1999/02/22-rdf-syntax-ns#"
   xmlns:svg="http://www.w3.org/2000/svg"
   xmlns="http://www.w3.org/2000/svg"
   xmlns:sodipodi="http://sodipodi.sourceforge.net/DTD/sodipodi-0.dtd"
   xmlns:inkscape="http://www.inkscape.org/namespaces/inkscape"
   id="svg3333"
   version="1.1"
   inkscape:version="0.48.3.1 r9886"
   width="78"
   height="66"
   sodipodi:docname="mascotte_kop1.svg">
  <metadata
     id="metadata3339">
    <rdf:RDF>
      <cc:Work
         rdf:about="">
        <dc:format>image/svg+xml</dc:format>
        <dc:type
           rdf:resource="http://purl.org/dc/dcmitype/StillImage" />
        <dc:title />
      </cc:Work>
    </rdf:RDF>
  </metadata>
  <defs
     id="defs3337" />
  <sodipodi:namedview
     pagecolor="#ffffff"
     bordercolor="#666666"
     borderopacity="1"
     objecttolerance="10"
     gridtolerance="10"
     guidetolerance="10"
     inkscape:pageopacity="0"
     inkscape:pageshadow="2"
     inkscape:window-width="640"
     inkscape:window-height="480"
     id="namedview3335"
     showgrid="false"
     inkscape:zoom="3.5757576"
     inkscape:cx="53.459209"
     inkscape:cy="35.810693"
     inkscape:window-x="236"
     inkscape:window-y="64"
     inkscape:window-maximized="0"
     inkscape:current-layer="svg3333" />
  <g
     id="#000000ff"
     transform="matrix(0.14349137,0,0,0.14420813,-0.46266449,0.72693182)">
    <path
       d="M 48.99,6.99 C 52.41,1.31 60.46,3.24 65.96,3.03 77.19,5.65 85.7,14.51 93,22.91 c 5.62,8.98 10.1,18.93 11.62,29.49 1.82,9.79 1.4,19.98 4.49,29.52 1.21,3.54 6.36,2.16 8.89,3.11 15.26,1.07 30.58,2.52 45.89,1.41 16.27,-0.61 32.37,3.44 48.67,1.64 -2.91,-16.85 -2.44,-34.99 4.85,-50.73 2.57,-4.53 5.93,-9.57 11.42,-10.55 7.74,-1.41 15.65,-3.09 23.56,-2.01 9.8,3.81 20.43,8.83 24.38,19.38 8.89,16.34 8.55,35.53 5.95,53.44 -1.74,19.88 -3.7,39.81 -7.7,59.39 -2.34,12.14 -3,24.64 -6.74,36.48 -6.09,19.64 -9.75,39.97 -16.59,59.39 -10.7,26.58 -23.81,52.24 -39.82,76.04 -5.38,8.2 -12.47,15.08 -17.91,23.23 8.12,1.37 18.38,0.63 23.79,8.09 5.92,9.41 7.24,20.73 10.89,31.07 3.37,9.76 4.94,20.05 8.26,29.82 1.06,4.55 6.63,3.35 10.2,4.25 1.09,-10.82 1.04,-22.09 -3.25,-32.29 -4.45,-12.16 -8.79,-24.35 -13.6,-36.37 -0.71,-1.75 -1.07,-3.63 -1.11,-5.51 5.35,-3.53 12.31,-1.59 18.32,-2.75 14.32,-2.44 28.89,-2.28 43.23,-4.61 30.4,-2.96 61.21,-2.22 91.15,-8.99 -0.38,-16.29 -1.97,-33.86 6.37,-48.61 3.16,-5.31 7.48,-10.02 12.61,-13.47 4.58,-2.61 7.12,4.3 8.68,7.69 -3.21,-0.28 -6.4,-0.73 -9.58,-1.2 -4.76,4.69 -8.98,10.18 -11.04,16.62 -2.27,9.52 -2.78,19.37 -2.77,29.12 -1.26,4.52 1.85,7.91 3.51,11.64 0.5,3.55 -1.04,7.66 2.33,10.4 6.76,11.14 20.58,10.94 31.89,11.2 6.59,0.35 14.16,-0.96 19.93,3 3.21,3.96 3.05,9.57 4.43,14.25 2.04,7.66 3.51,15.45 4.73,23.29 4.7,-0.64 10.51,0.23 13.56,-4.21 -2.37,-1.69 -4.97,-3.05 -7.23,-4.9 -2.93,-0.65 -4.96,-2.92 -5.45,-6.06 2.56,1.05 5.13,2.16 7.7,3.23 -0.17,-11 -0.03,-22.4 -4.31,-32.75 3.95,-4.91 8.88,-8.85 13.5,-13.08 11.67,-12.19 16.06,-29.4 16.7,-45.84 1.52,-23.84 0.85,-49.98 -12.3,-70.85 -2.49,-3.58 1.8,-6.91 3.45,-9.68 4.98,-5.38 5.34,-12.96 7.56,-19.6 9.68,-29.05 15.27,-59.23 24.38,-88.44 5.79,-15.47 5.92,-32.32 11.57,-47.85 -10.31,15.44 -13.6,34.33 -23.08,50.22 -5.81,9.92 -10.22,20.55 -15.28,30.85 -5.4,10.13 -7.47,21.58 -11.59,32.23 -4.25,14.88 -5.66,30.4 -8.73,45.52 -0.14,2.34 -2.94,1.54 -4.53,1.36 -30.44,-9.72 -62.81,-5.99 -94.17,-5.51 -18.28,-0.15 -36.46,2.05 -54.64,3.62 0.64,0.87 1.28,1.75 1.93,2.63 -12.93,-3.29 -25.81,2.1 -38.62,3.59 -0.18,0.59 -0.55,1.79 -0.73,2.38 2.16,-0.76 4.35,-1.44 6.56,-2.07 -1.71,6.97 -10.74,6.63 -16.22,5.09 -2.47,-0.2 -2.24,-2.54 -1.73,-4.38 2.2,-2.77 5.51,-4.81 8.97,-5.61 31.52,-3.7 62.92,-9.89 94.79,-9.65 30.8,-0.56 62.23,-4.31 92.4,4 0.14,-2.61 0.26,-5.25 1.04,-7.76 4.05,-12.53 5.26,-25.79 9.64,-38.24 2.8,-7.65 4.02,-15.87 7.76,-23.17 7.51,-14.05 13.22,-28.98 21.37,-42.7 6.03,-12.04 9.63,-25.17 15.85,-37.14 4.05,-8.14 10.54,-15.1 12.67,-24.14 0.79,-4.09 3.02,-7.61 5.88,-10.52 1.16,0.98 2.34,1.95 3.52,2.93 -7.84,18.58 -12.24,38.34 -15.56,58.17 -0.66,8.6 -6.43,15.82 -6.71,24.45 -0.51,-0.61 -1.01,-1.23 -1.5,-1.84 0.84,4.68 -1.05,8.96 -2.49,13.28 -5.33,24.9 -11.42,49.79 -20.04,73.8 -0.82,3.98 -0.99,8.17 -2.88,11.85 -1.32,3.15 -3.86,6.02 -3.63,9.62 0.15,8.9 5.75,16.49 6.93,25.21 5.23,28.12 6.53,58.8 -6.27,85.19 -3.94,9.7 -14.35,14.35 -19.21,23.32 0.57,14.32 6.94,27.95 5.97,42.37 -3.18,7.46 -13.86,8.28 -20.45,5.05 -3.48,-7.09 -2.69,-15.64 -4.69,-23.2 -5.37,1.14 -10.81,2.89 -16.34,2.34 -3.42,-5.23 -3.61,-12.48 -8.07,-17.01 -10.43,-1.81 -21.3,-0.89 -31.82,-2.36 -9.93,-2.45 -17.05,-10.71 -21.65,-19.43 -43.25,4.39 -86.83,5.42 -129.93,11.46 3.11,12.44 7.32,24.6 12.2,36.45 3.53,8.56 8.2,16.85 9.36,26.17 -0.23,4.55 -2.21,9.51 -6.38,11.81 -5.96,4.14 -14.98,3.12 -20.14,-1.78 -3.77,-10.02 -4.72,-21 -9.32,-30.79 -4.68,-10.66 -5.9,-22.5 -10.86,-33.04 -2.7,-5.3 -9.68,-3.35 -14.28,-1.98 -5.07,1.99 -10.7,2.06 -15.66,4.35 -5.08,2.47 -5.41,8.82 -7.09,13.6 -1.74,4.85 -2.44,9.94 -3.08,15.04 -4.09,14.98 1.88,30.27 3.88,45.08 -5.13,1.25 -11.74,4.9 -16.2,0.3 -11.48,-10.96 -11.12,-27.68 -14.27,-42.08 -7.93,4.01 -15.39,8.85 -23.18,13.09 -5.19,2.07 -11.36,5.2 -16.9,2.46 -4.81,-2.3 -9.78,-4.67 -13.57,-8.5 -15.86,-19.6 -32.84,-38.99 -42.37,-62.68 -12.18,-27.94 -24.58,-56.31 -29.11,-86.7 -2.2,-15.39 -4.91,-30.76 -5.36,-46.34 -0.95,-28.68 4.61,-57 6.95,-85.48 2.36,-27.31 8.77,-54 15.54,-80.49 2.95,-12.32 5.74,-24.92 12.05,-36.05 m 3.54,2.72 c 1.55,0.45 3.11,0.9 4.66,1.37 -2.02,1.44 -4.16,2.79 -6.68,3.09 -4.95,12.66 -8.64,25.84 -10.92,39.25 -2.14,8.68 -4.33,17.34 -6.04,26.11 -5.46,20.53 -6.95,41.8 -9.28,62.83 -2.45,18.83 -3.62,37.79 -5.15,56.71 -1.58,7.81 3.8,14.88 2.29,22.54 -1.26,6.51 1.47,12.83 1.9,19.28 1.6,24.71 9.45,48.49 18.37,71.42 2.79,7.08 5.23,14.37 9.18,20.92 3.58,5.24 4.37,11.8 7.53,17.27 6.67,11.38 13.14,23.03 22.51,32.49 1.86,-4.51 4.07,-8.97 7.57,-12.46 14.83,-9.96 34.12,-11.29 50.91,-5.96 5.47,2.61 8.58,8.27 13.2,11.97 2.92,0.65 6.07,1.75 9.05,1.02 8.8,-8.18 16.33,-17.65 24.72,-26.26 22.95,-23.85 39.1,-53.15 52.91,-82.98 3.75,-9.14 9.62,-17.5 11.06,-27.46 -2.38,1.87 -4.73,3.77 -7.07,5.67 1.43,1.07 2.83,2.21 3.98,3.6 -3.72,5.32 -11.38,3.37 -16.72,3.15 -9.94,-1.56 -19.9,-3.78 -29.2,-7.67 -17.21,-9.96 -35.1,-20.97 -45.65,-38.38 -2.64,-5.01 -7.08,-10.18 -6.06,-16.29 0.37,-11.73 8.12,-21.44 15.55,-29.8 7.81,-9.07 19.15,-13.74 30.5,-16.48 12.68,-2.3 25.64,-4.23 38.53,-2.6 12.95,0.87 24.56,7.12 36.68,11.11 3.09,-13.62 4.01,-27.58 5.68,-41.42 1.29,-13.87 3.56,-27.73 2.35,-41.72 -0.38,-10.88 -5.16,-21.08 -10.93,-30.08 -7.89,-5.58 -17.39,-12.18 -27.62,-9.73 -5.8,1.4 -13.61,1.08 -17.08,7 -7.29,13.67 -9.15,30.04 -5.36,45.05 1.05,3.81 2.21,7.61 2.69,11.54 -16.41,-0.49 -32.84,0.49 -49.2,-1.31 -19.84,0.85 -39.7,0.12 -59.36,-2.69 -3.4,-0.05 -6.55,-2.19 -7.33,-5.5 C 101.16,71.78 101.78,58.5 97.98,46.01 94.87,31.07 84.08,18.34 70.88,11.09 65.26,8.01 58.59,8.61 52.53,9.71 M 213.1,72.43 c -0.03,2.87 0.36,5.75 1.77,8.29 -0.28,-2.82 -0.83,-5.61 -1.77,-8.29 m -8.21,76.8 c 0.79,1.31 1.58,2.62 2.37,3.93 4.28,-1.45 8.51,-3.13 12.39,-5.47 -4.92,0.47 -9.83,1.1 -14.76,1.54 m 20.34,-0.77 c -0.4,1.24 -0.8,2.48 -1.17,3.73 2.75,-1.29 5.48,-2.65 8.25,-3.91 -2.52,-0.05 -4.68,0.15 -7.08,0.18 m -38.74,5.51 c 3.02,0.44 6.02,1.51 9.09,1.29 2.97,-1.6 5.84,-3.42 8.7,-5.22 -6.16,-0.09 -12.22,1.37 -17.79,3.93 m 54.78,-4.63 c 0.39,2.89 0.81,5.76 1.24,8.65 4.59,0.29 8.91,-0.62 11.16,-4.95 -3.98,-1.69 -8.16,-2.89 -12.4,-3.7 m 14.75,4.54 c 0,0.81 0,2.43 0,3.24 1.3,-0.41 2.59,-0.83 3.89,-1.24 l 0,-0.76 c -1.3,-0.42 -2.59,-0.83 -3.89,-1.24 m -87.35,11.29 c 5.56,-1.87 10.51,-5.34 13.77,-10.27 -5.1,2.66 -9.97,5.91 -13.77,10.27 m 96.04,-7.41 c 0.96,2.6 2.51,4.91 4.3,7.01 1.94,-4.58 -1.72,-5.61 -4.3,-7.01 m -49.17,5.76 c 2.97,-0.66 5.91,-1.44 8.85,-2.24 -2.96,0.68 -5.92,1.43 -8.85,2.24 m 15.32,-0.41 c 0.36,0.99 0.72,1.97 1.09,2.96 0.91,0.23 1.83,0.47 2.75,0.71 0.01,-1.51 0.01,-3.02 0.01,-4.52 -1.29,0.27 -2.57,0.56 -3.85,0.85 m 15.8,13.07 c 3.51,-4.17 8.3,-8.03 8.51,-13.91 -3.53,4.16 -6.78,8.69 -8.51,13.91 M 194.65,170 c 4.33,-0.44 8.66,-0.93 12.96,-1.59 -4.43,-2.36 -9.13,-1.45 -12.96,1.59 m 66.63,8.79 c 2.74,-3.56 3.58,-8.05 3.36,-12.45 -2.71,3.54 -3.54,8.05 -3.36,12.45 m -38.11,-8.54 c -1.63,0.36 -0.92,2.99 0.66,2.5 1.63,-0.37 0.92,-3 -0.66,-2.5 m -17.71,2.56 c 3.56,3.05 7.47,5.64 11.39,8.22 -0.3,-6.08 -5.42,-9.81 -11.39,-8.22 m 22.63,8.54 c 0.6,-2.95 1.19,-5.88 1.6,-8.86 -0.73,2.93 -1.21,5.87 -1.6,8.86 m -5.82,-6.81 c -1.14,0.87 0.32,2.84 1.46,1.92 1.14,-0.88 -0.32,-2.84 -1.46,-1.92 m 21.74,19.68 c 4.32,-6.52 9.19,-13.07 10.75,-20.91 -5.29,5.96 -8.99,13.16 -10.75,20.91 m -70.77,-10.21 c 1.35,-0.3 2.69,-0.6 4.04,-0.89 0.01,-1.74 0.02,-5.23 0.03,-6.97 -1.56,2.51 -2.9,5.15 -4.07,7.86 m 14.42,-0.61 c 2.13,-2.09 3.91,-4.48 5.41,-7.05 -2.52,1.72 -4.33,4.21 -5.41,7.05 m 33.64,-7.02 c 0.69,3.35 1.75,6.58 2.81,9.83 -0.56,-3.39 -1.14,-6.79 -2.81,-9.83 m -28.39,12.65 c 1.91,2.81 3.57,5.81 5.8,8.39 2.16,2.07 5.45,0.98 7.94,0.25 4.25,-1.42 5.67,-6.18 8.01,-9.52 -3.09,-3.15 -5.71,-7.07 -9.78,-9.04 -5.26,1.26 -9.01,5.66 -11.97,9.92 m -5.31,9.18 c 1.05,-0.47 2.1,-0.93 3.15,-1.39 -1.76,-4.24 -3.07,-8.66 -4.04,-13.15 -0.74,4.86 0.17,9.73 0.89,14.54 m 68.61,0.38 c 1.12,0.91 2.4,1.59 3.62,2.37 -2.7,7.42 -5.91,14.74 -6.8,22.67 1.98,-2.5 3.58,-5.32 4.27,-8.46 2.38,-10.17 5.54,-20.13 7.95,-30.29 -2.91,4.52 -8.03,8.16 -9.04,13.71 m -19.34,3 c 2.13,-2.99 3.55,-6.42 4.32,-10.01 -2.42,2.83 -4.05,6.26 -4.32,10.01 m -80.26,-3.57 c 1,2.15 2,4.31 3.09,6.42 0.1,-1.73 0.19,-3.45 0.26,-5.17 -1.12,-0.43 -2.24,-0.84 -3.35,-1.25 m 66.67,1.79 c -1.34,0.45 -2.37,2.46 -1.53,3.71 1.76,0.68 3.36,-3.09 1.53,-3.71 m -29.02,1.13 c -0.92,1.54 1.5,3.6 2.94,2.67 0.65,-1.45 -1.59,-3.36 -2.94,-2.67 m 22.82,1.56 c -1.29,-0.07 -2.56,1.68 -1.66,2.78 1.53,1.09 3.63,-2.16 1.66,-2.78 m 19.23,23.14 c 6.36,-6.26 10.3,-14.62 12.86,-23.07 -5.69,6.82 -9.49,14.92 -12.86,23.07 m -52.03,-17.27 c -1,2.75 2.29,4.04 3.82,5.64 0.81,-3.39 1.15,-6.87 1.54,-10.32 -1.96,1.3 -4.19,2.53 -5.36,4.68 m -24.56,-3.99 c 2.39,3.06 5.07,5.87 7.66,8.76 -0.97,-4.02 -3.1,-8.14 -7.66,-8.76 m 69.63,10.37 c 2.01,-2.69 3.17,-5.87 3.76,-9.16 -1.61,2.89 -2.85,5.97 -3.76,9.16 m -36.13,-6.34 c -1.1,0.44 -1.84,2.69 -0.31,3.02 1.82,0.17 2.59,-3.74 0.31,-3.02 m -19.25,1 c 0.53,1.71 1.06,3.42 1.54,5.15 0.49,-1.71 1.07,-3.38 1.72,-5.03 -0.81,-0.03 -2.44,-0.09 -3.26,-0.12 m 47.36,1.91 c -1.07,1.31 1.2,2.88 2.15,1.56 1.03,-1.31 -1.22,-2.88 -2.15,-1.56 m -14.2,1.63 c -0.21,0.28 -0.61,0.85 -0.82,1.13 0.85,3.14 4.17,-1.66 0.82,-1.13 m -28.36,3.74 c 1.36,1.29 2.69,2.6 3.98,3.95 -0.43,-1.4 -0.85,-2.8 -1.27,-4.19 -0.68,0.06 -2.03,0.18 -2.71,0.24 m 43.31,0.62 c -1.42,-0.08 -1.69,2.37 -0.16,2.38 1.41,0.07 1.68,-2.38 0.16,-2.38 m 26.09,0.25 c -1.41,-0.04 -2.49,1.98 -1.49,3.05 1.8,1.24 3.67,-2.52 1.49,-3.05 m -47.37,8.61 c -0.45,1.42 1.94,1.93 2.4,0.66 0.45,-1.42 -1.95,-1.93 -2.4,-0.66 m -9.55,4.52 c 2.84,4.03 7.56,5.82 12.4,6 -0.04,-1.12 -0.06,-2.22 -0.07,-3.33 -4.16,-0.67 -8.3,-1.44 -12.33,-2.67 m 41.99,1.11 c -1.37,0.25 -1.63,2.9 0,2.88 1.47,-0.15 1.63,-2.93 0,-2.88 m -7.11,0.57 c -1.2,0.82 0.16,2.94 1.32,1.85 1.2,-0.84 -0.13,-2.9 -1.32,-1.85 m 13.87,5.28 c 1.31,-1.87 2.54,-3.81 3.32,-5.96 -1.29,1.88 -2.34,3.9 -3.32,5.96 m 5.1,1.73 c -1.42,-0.34 -2.55,2.16 -0.88,2.56 1.46,0.39 2.56,-2.16 0.88,-2.56 m -9.07,1.64 0.32,5.75 c 2.22,-1.66 4.37,-3.43 6.39,-5.32 -1.68,-0.11 -5.03,-0.32 -6.71,-0.43 m 137.47,99.75 c 1.56,10.36 11.49,14.97 20.38,17.63 -3.85,-5 -7.21,-10.36 -9.7,-16.16 -3.56,-0.55 -7.11,-1.05 -10.68,-1.47 m 52.38,22.9 c 1.97,4.4 4.16,8.72 5.76,13.29 3.11,-0.43 6.26,-0.87 9.38,-1.35 -1.1,-3.33 -2.11,-6.75 -3.93,-9.77 -2.37,-3.59 -7.97,-0.67 -11.21,-2.17 m -294.49,5.31 c 0.76,2.65 2.83,5.58 1.07,8.3 -1.83,4.92 -7.15,6.46 -11.15,9.09 1.55,-0.46 3.09,-0.94 4.63,-1.4 -3.31,4.58 -6.5,9.27 -9.18,14.26 7.46,-7.46 13.34,-16.35 21.07,-23.58 1.37,1.15 2.73,2.31 4.07,3.51 0.91,-1.41 1.78,-2.84 2.67,-4.26 -4.28,-2.24 -8.57,-4.46 -13.18,-5.92 m 36.5,10.89 c -5.91,4.01 -11.81,8.25 -16.23,13.93 1.24,0.43 2.5,0.83 3.77,1.2 -1.69,1.53 -3.63,2.8 -5.12,4.54 0.37,12.28 3.41,24.76 10.68,34.87 1,-1.78 1.96,-3.59 2.91,-5.41 -1.51,-3.11 -3.45,-6.37 -2.93,-9.97 1.54,-13.17 2.58,-26.55 6.92,-39.16 m -43.99,23.45 c 7.63,-3.49 13.44,-9.58 16.33,-17.5 -6.17,5.1 -11.6,11.03 -16.33,17.5 m -17.12,2.19 c 3.85,-3.7 6.98,-8.13 9.46,-12.85 -4.24,3.35 -7.24,7.98 -9.46,12.85 m -8.59,-6.01 c -1.38,0.05 -1.5,2.48 0.01,2.4 1.43,-0.01 1.5,-2.51 -0.01,-2.4 m 156.45,22.28 c 1.03,-2.62 1.66,-5.47 2.31,-8.17 -0.9,2.68 -1.71,5.4 -2.31,8.17 m -3.47,-3.5 c -1.49,0.47 -1.02,3.21 0.66,2.44 1.48,-0.48 1.01,-3.22 -0.66,-2.44 m -88.43,17.55 c 2.1,0.46 4.21,0.9 6.33,1.33 -0.32,-1.29 -0.65,-2.57 -0.98,-3.85 -1.81,0.79 -3.6,1.62 -5.35,2.52 z"
       id="path3086"
       inkscape:connector-curvature="0"
       style="fill:#000000" />
    <path
       d="m 62.17,125.17 c 1.63,-0.52 2.18,0.03 1.66,1.66 -1.63,0.52 -2.18,-0.03 -1.66,-1.66 z"
       id="path3088"
       inkscape:connector-curvature="0"
       style="fill:#000000" />
    <path
       d="m 67.69,171.68 c 4.13,-5.23 11.45,-6.78 17.75,-5.88 5.35,3.94 9.89,9.61 10.15,16.56 -0.06,-1.58 -0.12,-3.15 -0.17,-4.73 0.85,1.37 1.67,2.77 2.47,4.17 -1.78,4.02 -2.15,9.51 -6.7,11.47 -8.21,3.16 -19.57,5.5 -25.82,-2.6 -3.8,-5.79 -2.37,-14.09 2.32,-18.99 m 4.95,6.31 c -0.69,3.02 -1.01,6.1 -1.01,9.2 5.16,1.66 10.77,-0.18 12.84,-5.44 -0.94,-5.22 -8.71,-1.87 -11.83,-3.76 m 15.93,10.42 0.79,-0.47 c 2.4,-0.85 3.37,-3.21 4.12,-5.43 -1.91,1.72 -3.58,3.69 -4.91,5.9 m -1.17,0.99 c 0.86,1.12 2.83,-0.3 1.96,-1.46 -0.88,-1.12 -2.87,0.3 -1.96,1.46 z"
       id="path3090"
       inkscape:connector-curvature="0"
       style="fill:#000000" />
  </g>
</svg>
