<?xml version="1.0" encoding="UTF-8" standalone="no"?>
<!-- Created with Inkscape (http://www.inkscape.org/) -->

<svg
   xmlns:dc="http://purl.org/dc/elements/1.1/"
   xmlns:cc="http://creativecommons.org/ns#"
   xmlns:rdf="http://www.w3.org/1999/02/22-rdf-syntax-ns#"
   xmlns:svg="http://www.w3.org/2000/svg"
   xmlns="http://www.w3.org/2000/svg"
   xmlns:sodipodi="http://sodipodi.sourceforge.net/DTD/sodipodi-0.dtd"
   xmlns:inkscape="http://www.inkscape.org/namespaces/inkscape"
   width="442.40045"
   height="203.45357"
   id="svg2"
   version="1.1"
   inkscape:version="0.48.3.1 r9886"
   sodipodi:docname="mascotte_bye.svg">
  <defs
     id="defs4">
    <inkscape:perspective
       sodipodi:type="inkscape:persp3d"
       inkscape:vp_x="0 : 526.18109 : 1"
       inkscape:vp_y="0 : 1000 : 0"
       inkscape:vp_z="744.09448 : 526.18109 : 1"
       inkscape:persp3d-origin="372.04724 : 350.78739 : 1"
       id="perspective10" />
    <inkscape:perspective
       id="perspective3608"
       inkscape:persp3d-origin="0.5 : 0.33333333 : 1"
       inkscape:vp_z="1 : 0.5 : 1"
       inkscape:vp_y="0 : 1000 : 0"
       inkscape:vp_x="0 : 0.5 : 1"
       sodipodi:type="inkscape:persp3d" />
    <inkscape:perspective
       id="perspective3630"
       inkscape:persp3d-origin="0.5 : 0.33333333 : 1"
       inkscape:vp_z="1 : 0.5 : 1"
       inkscape:vp_y="0 : 1000 : 0"
       inkscape:vp_x="0 : 0.5 : 1"
       sodipodi:type="inkscape:persp3d" />
    <inkscape:perspective
       id="perspective3657"
       inkscape:persp3d-origin="0.5 : 0.33333333 : 1"
       inkscape:vp_z="1 : 0.5 : 1"
       inkscape:vp_y="0 : 1000 : 0"
       inkscape:vp_x="0 : 0.5 : 1"
       sodipodi:type="inkscape:persp3d" />
    <inkscape:perspective
       id="perspective3679"
       inkscape:persp3d-origin="0.5 : 0.33333333 : 1"
       inkscape:vp_z="1 : 0.5 : 1"
       inkscape:vp_y="0 : 1000 : 0"
       inkscape:vp_x="0 : 0.5 : 1"
       sodipodi:type="inkscape:persp3d" />
  </defs>
  <sodipodi:namedview
     id="base"
     pagecolor="#ffffff"
     bordercolor="#666666"
     borderopacity="1.0"
     inkscape:pageopacity="0.0"
     inkscape:pageshadow="2"
     inkscape:zoom="1.979899"
     inkscape:cx="257.25484"
     inkscape:cy="119.05703"
     inkscape:document-units="px"
     inkscape:current-layer="layer1"
     showgrid="false"
     inkscape:window-width="1366"
     inkscape:window-height="715"
     inkscape:window-x="0"
     inkscape:window-y="24"
     inkscape:window-maximized="1"
     fit-margin-top="4"
     fit-margin-left="4"
     fit-margin-right="4"
     fit-margin-bottom="4" />
  <metadata
     id="metadata7">
    <rdf:RDF>
      <cc:Work
         rdf:about="">
        <dc:format>image/svg+xml</dc:format>
        <dc:type
           rdf:resource="http://purl.org/dc/dcmitype/StillImage" />
        <dc:title />
      </cc:Work>
    </rdf:RDF>
  </metadata>
  <g
     inkscape:label="Layer 1"
     inkscape:groupmode="layer"
     id="layer1"
     transform="translate(-80.733112,-17.18947)">
    <path
       style="fill:#ffffff;stroke:#000000;stroke-width:0.42023644;stroke-miterlimit:4;stroke-opacity:1;stroke-dasharray:none"
       d="m 183.57994,65.528643 c 7.86399,26.768545 -34.87589,38.286937 -32.97568,5.779133 -10.06329,-27.170891 30.54966,-48.044799 32.47705,-12.675608 l 0.37055,3.472718 0.12808,3.423757 z"
       id="path3598-8-4"
       inkscape:connector-curvature="0" />
    <path
       style="fill:#ffffff;stroke:#000000;stroke-width:0.42023644;stroke-miterlimit:4;stroke-opacity:1;stroke-dasharray:none"
       d="m 121.10478,64.417062 c 7.864,26.768543 -34.875887,38.286928 -32.975677,5.779134 C 78.065816,43.025307 118.67877,22.151395 120.60615,57.520587 l 0.37055,3.472718 0.12808,3.423757 0,0 z"
       id="path3598-8"
       inkscape:connector-curvature="0" />
    <path
       style="fill:#6c5d53;stroke:#000000;stroke-width:0.35498562;stroke-miterlimit:4;stroke-opacity:1;stroke-dasharray:none"
       d="M 120.12895,72.409784 C 128.4308,97.266047 86.444957,103.30715 92.97748,73.93104 90.712332,46.855157 121.46352,36.389334 120.12895,72.409784 z"
       id="path3598-8-8"
       inkscape:connector-curvature="0" />
    <path
       style="fill:#6c5d53;stroke:#000000;stroke-width:0.35498562;stroke-miterlimit:4;stroke-opacity:1;stroke-dasharray:none"
       d="m 179.32923,73.468427 c 8.30184,24.856262 -33.684,30.897363 -27.15147,1.521257 -2.26515,-27.075887 28.48603,-37.541703 27.15147,-1.521257 z"
       id="path3598-8-8-3"
       inkscape:connector-curvature="0" />
    <path
       style="fill:#ffffff;stroke:#000000;stroke-width:0.32534432;stroke-miterlimit:4;stroke-opacity:1;stroke-dasharray:none"
       d="m 186.24744,134.60512 c 0.47297,31.12881 -14.29721,71.89607 -49.48481,75.94049 -34.81936,-1.37256 -50.616372,-40.29412 -51.658528,-70.49825 -1.957291,-30.57101 9.767227,-67.071068 39.865758,-79.913018 29.01176,-7.959748 51.79109,19.781556 57.46088,45.445718 2.5978,9.44047 3.7829,19.24266 3.8167,29.02506 z"
       id="path3598"
       inkscape:connector-curvature="0" />
    <path
       style="fill:none;stroke-width:0.1;stroke-miterlimit:4;stroke-dasharray:none"
       d="m 164.07884,148.8968 c 0.4544,22.04748 -9.564,57.47047 -37.40216,53.7394 -26.948352,-11.05133 -29.46711,-46.71822 -25.45558,-71.69895 0.66298,-25.12124 33.34249,-52.190095 51.1555,-24.37107 8.99232,11.98687 11.34775,27.72041 11.70224,42.33062 z"
       id="path2816"
       inkscape:connector-curvature="0" />
    <g
       id="g3644"
       transform="matrix(0.17634114,0,0,0.18526263,69.358455,37.301598)">
      <path
         style="fill:#000000;stroke-width:0.1;stroke-miterlimit:4;stroke-dasharray:none"
         d="M 391.42855,500.9336 C 417.41665,629.48004 217.95725,723.18429 169.59977,577.65914 71.587743,427.63615 323.5602,232.16126 383.56321,445.2754 l 6.28619,28.03823 1.57915,27.61997 0,0 z"
         id="path2818"
         inkscape:connector-curvature="0" />
      <path
         style="fill:#ffffff;stroke-width:0.1;stroke-miterlimit:4;stroke-dasharray:none"
         d="m 314.28572,550.9336 c -3.51436,161.61345 -208.8764,-47.74196 -53.34935,-72.23658 33.11533,3.51843 58.96618,39.81939 53.34935,72.23658 z"
         id="path2820"
         inkscape:connector-curvature="0" />
      <path
         style="fill:#000000;stroke-width:0.1;stroke-miterlimit:4;stroke-dasharray:none"
         d="M 554.28569,565.21933 C 524.46646,686.86501 449.05381,461.00334 549.34517,543.34936 l 4.94052,21.86997 z"
         id="path2822"
         inkscape:connector-curvature="0" />
    </g>
    <path
       style="fill:#000000;stroke-width:0.1;stroke-miterlimit:4;stroke-dasharray:none"
       d="m 156.26945,202.09364 c -2.80324,28.25543 -58.00561,10.30549 -33.10346,-11.16314 10.91201,-6.98713 31.08539,-3.71585 33.10346,11.16314 z"
       id="path2824"
       inkscape:connector-curvature="0" />
    <path
       style="fill:#b3b3b3"
       d="m 190.82925,63.340175 c -6.19243,-29.891856 49.73872,-32.626929 33.62469,0.559307 -3.01279,22.528635 -53.08072,17.499767 -28.84321,1.212295 6.18255,7.816324 17.00127,17.96308 14.06685,8.314255 15.19724,-11.236581 -5.76608,-31.239325 -0.89441,-34.649026 -1.90769,6.114953 -6.63,23.993008 -17.95392,24.563169 z"
       id="path3119"
       inkscape:connector-curvature="0" />
    <path
       style="fill:#cccccc"
       d="m 242.51747,70.593632 c -21.64148,7.439461 1.80824,42.440828 8.20606,19.515959 7.4387,-13.942115 -23.26995,-27.663682 -0.99234,-19.505972 21.11774,15.921478 -15.75298,45.056211 -19.90083,16.31267 0.56368,-7.194904 5.30691,-14.623487 12.68711,-16.322657 z"
       id="path3125"
       inkscape:connector-curvature="0" />
    <path
       style="fill:#808080"
       d="m 250.69117,40.777165 c 15.73501,-24.138645 28.69843,28.526487 1.64388,14.721393 -7.18641,-8.75047 -1.40424,-26.33903 -0.51276,-6.584638 12.43962,18.831705 23.52872,-17.953034 3.362,-13.422076 l -1.98894,2.878544 -2.50418,2.406777 z"
       id="path3127"
       inkscape:connector-curvature="0" />
    <path
       style="fill:#b3b3b3"
       d="m 265.67372,77.136373 c -7.32828,-27.711944 39.50242,-21.553715 24.34214,4.468948 -2.36733,18.334991 -36.1241,3.547774 -19.22709,4.335486 19.74016,24.528183 14.56012,-51.755275 0.66634,-18.400856 -3.17323,2.992227 -0.54686,9.328557 -5.78139,9.596422 z"
       id="path3129"
       inkscape:connector-curvature="0" />
    <path
       style="fill:#b3b3b3"
       d="m 309.51991,57.136808 c -9.26857,-24.839125 43.53208,-38.775137 38.18752,-21.272754 -18.98176,-17.56263 -31.67664,2.879808 -35.11747,20.051385 l -3.07005,1.221369 0,0 z"
       id="path3131"
       inkscape:connector-curvature="0" />
    <path
       style="fill:#b3b3b3"
       d="m 352.7493,36.171249 c 18.89934,-16.472926 46.17807,-12.874676 69.30291,-14.960602 14.86057,-0.708188 13.89243,16.6757 2.42963,2.778102 -23.49462,-1.808664 -51.35584,-2.707716 -71.19265,11.980062 l -0.53989,0.202437 c 0,0 0,1e-6 0,1e-6 z"
       id="path3133"
       inkscape:connector-curvature="0" />
    <path
       style="fill:#808080"
       d="m 439.94628,28.552593 c 31.85771,-3.669804 63.37284,18.478309 76.66383,46.529468 9.18968,17.232443 -9.65479,19.856131 -9.94582,0.519827 -6.23151,-20.842263 -28.36584,-33.360409 -47.37841,-41.546487 -2.39703,-4.266678 -36.42127,-0.04071 -19.3396,-5.502808 z"
       id="path3135"
       inkscape:connector-curvature="0" />
    <path
       style="fill:#cccccc"
       d="M 514.42536,94.453349 C 506.06,121.97092 473.50745,129.29227 448.61476,133.916 c -11.90278,3.25466 -41.92421,-1.5302 -38.96309,-11.2193 21.22134,17.5429 51.76852,10.5358 74.93871,0.77027 15.75345,-4.05217 19.78457,-18.66153 29.83498,-29.013621 z"
       id="path3137"
       inkscape:connector-curvature="0" />
    <path
       style="fill:#333333"
       d="m 407.13503,123.95035 c -25.06407,12.93793 -61.8469,27.56427 -86.36961,7.87365 -10.05985,-11.71668 -3.78613,-21.88981 1.68624,-4.62965 14.47648,20.21238 42.64473,12.6336 62.52598,6.54643 7.61586,-2.70999 14.96819,-6.10742 22.15739,-9.79043 z"
       id="path3139"
       inkscape:connector-curvature="0" />
    <path
       style="fill:#808080"
       d="m 312.51148,118.88213 c -2.70593,-22.452242 -32.34898,-58.458259 -9.69103,-73.931699 -10.27517,3.953531 -1.46398,33.147627 4.51255,46.464621 0.76231,8.695558 12.68035,19.573908 5.17848,27.467078 z"
       id="path3141"
       inkscape:connector-curvature="0" />
    <text
       xml:space="preserve"
       style="font-size:39.40979385px;font-style:normal;font-weight:normal;line-height:125%;letter-spacing:0px;word-spacing:0px;fill:#000000;fill-opacity:1;stroke:none;font-family:Sans"
       x="407.55591"
       y="87.400383"
       id="text3020"
       sodipodi:linespacing="125%"
       transform="scale(0.98524265,1.0149784)"><tspan
         sodipodi:role="line"
         x="407.55591"
         y="87.400383"
         id="tspan3022"><tspan
           x="407.55591"
           y="87.400383"
           style="font-variant:normal;font-stretch:normal;text-align:center;text-anchor:middle;font-family:Domestic Manners;-inkscape-font-specification:Domestic Manners"
           id="tspan3024">Bye !</tspan></tspan></text>
  </g>
</svg>
